<mxfile host="Electron" agent="Mozilla/5.0 (Windows NT 10.0; Win64; x64) AppleWebKit/537.36 (KHTML, like Gecko) draw.io/24.7.17 Chrome/128.0.6613.36 Electron/32.0.1 Safari/537.36" version="24.7.17">
  <diagram name="Page-1" id="12FHPj1fJQ6DT0mN-anc">
    <mxGraphModel dx="988" dy="646" grid="1" gridSize="10" guides="1" tooltips="1" connect="1" arrows="1" fold="1" page="1" pageScale="1" pageWidth="827" pageHeight="1169" math="0" shadow="0">
      <root>
        <mxCell id="0" />
        <mxCell id="1" parent="0" />
        <mxCell id="1pIJbLg3n0uSN6tYHmuE-135" value="" style="whiteSpace=wrap;html=1;movable=0;resizable=0;rotatable=0;deletable=0;editable=0;locked=1;connectable=0;" parent="1" vertex="1">
          <mxGeometry x="500" y="580" width="1920" height="570" as="geometry" />
        </mxCell>
        <mxCell id="1pIJbLg3n0uSN6tYHmuE-2" value="" style="whiteSpace=wrap;html=1;" parent="1" vertex="1">
          <mxGeometry x="80" y="80" width="680" height="280" as="geometry" />
        </mxCell>
        <mxCell id="1pIJbLg3n0uSN6tYHmuE-3" value="&lt;font style=&quot;font-size: 22px;&quot;&gt;Package Vue&lt;/font&gt;" style="text;html=1;align=center;verticalAlign=middle;resizable=0;points=[];autosize=1;strokeColor=none;fillColor=none;" parent="1" vertex="1">
          <mxGeometry x="339" y="30" width="150" height="40" as="geometry" />
        </mxCell>
        <mxCell id="1pIJbLg3n0uSN6tYHmuE-4" value="&lt;font style=&quot;font-size: 22px;&quot;&gt;Package Controleur&lt;/font&gt;" style="text;html=1;align=center;verticalAlign=middle;resizable=0;points=[];autosize=1;strokeColor=none;fillColor=none;" parent="1" vertex="1">
          <mxGeometry x="100" y="530" width="220" height="40" as="geometry" />
        </mxCell>
        <mxCell id="1pIJbLg3n0uSN6tYHmuE-5" value="" style="whiteSpace=wrap;html=1;" parent="1" vertex="1">
          <mxGeometry x="80" y="585" width="260" height="200" as="geometry" />
        </mxCell>
        <mxCell id="1pIJbLg3n0uSN6tYHmuE-6" value="&lt;font style=&quot;font-size: 22px;&quot;&gt;Package ModÃ¨le&lt;/font&gt;" style="text;html=1;align=center;verticalAlign=middle;resizable=0;points=[];autosize=1;strokeColor=none;fillColor=none;" parent="1" vertex="1">
          <mxGeometry x="535" y="530" width="190" height="40" as="geometry" />
        </mxCell>
        <mxCell id="1pIJbLg3n0uSN6tYHmuE-8" value="Main" style="swimlane;fontStyle=1;align=center;verticalAlign=top;childLayout=stackLayout;horizontal=1;startSize=26;horizontalStack=0;resizeParent=1;resizeParentMax=0;resizeLast=0;collapsible=1;marginBottom=0;whiteSpace=wrap;html=1;" parent="1" vertex="1">
          <mxGeometry x="130" y="836" width="160" height="34" as="geometry" />
        </mxCell>
        <mxCell id="1pIJbLg3n0uSN6tYHmuE-10" value="" style="line;strokeWidth=1;fillColor=none;align=left;verticalAlign=middle;spacingTop=-1;spacingLeft=3;spacingRight=3;rotatable=0;labelPosition=right;points=[];portConstraint=eastwest;strokeColor=inherit;" parent="1pIJbLg3n0uSN6tYHmuE-8" vertex="1">
          <mxGeometry y="26" width="160" height="8" as="geometry" />
        </mxCell>
        <mxCell id="1pIJbLg3n0uSN6tYHmuE-154" style="edgeStyle=orthogonalEdgeStyle;rounded=0;orthogonalLoop=1;jettySize=auto;html=1;endArrow=open;endFill=0;" parent="1" source="1pIJbLg3n0uSN6tYHmuE-12" target="1pIJbLg3n0uSN6tYHmuE-59" edge="1">
          <mxGeometry relative="1" as="geometry">
            <Array as="points">
              <mxPoint x="830" y="738" />
            </Array>
          </mxGeometry>
        </mxCell>
        <mxCell id="1pIJbLg3n0uSN6tYHmuE-12" value="Map" style="swimlane;fontStyle=1;align=center;verticalAlign=top;childLayout=stackLayout;horizontal=1;startSize=26;horizontalStack=0;resizeParent=1;resizeParentMax=0;resizeLast=0;collapsible=1;marginBottom=0;whiteSpace=wrap;html=1;" parent="1" vertex="1">
          <mxGeometry x="510" y="590" width="160" height="296" as="geometry" />
        </mxCell>
        <mxCell id="1pIJbLg3n0uSN6tYHmuE-13" value="???" style="text;strokeColor=none;fillColor=none;align=left;verticalAlign=top;spacingLeft=4;spacingRight=4;overflow=hidden;rotatable=0;points=[[0,0.5],[1,0.5]];portConstraint=eastwest;whiteSpace=wrap;html=1;" parent="1pIJbLg3n0uSN6tYHmuE-12" vertex="1">
          <mxGeometry y="26" width="160" height="26" as="geometry" />
        </mxCell>
        <mxCell id="1pIJbLg3n0uSN6tYHmuE-14" value="" style="line;strokeWidth=1;fillColor=none;align=left;verticalAlign=middle;spacingTop=-1;spacingLeft=3;spacingRight=3;rotatable=0;labelPosition=right;points=[];portConstraint=eastwest;strokeColor=inherit;" parent="1pIJbLg3n0uSN6tYHmuE-12" vertex="1">
          <mxGeometry y="52" width="160" height="8" as="geometry" />
        </mxCell>
        <mxCell id="1pIJbLg3n0uSN6tYHmuE-15" value="+ Map()" style="text;strokeColor=none;fillColor=none;align=left;verticalAlign=top;spacingLeft=4;spacingRight=4;overflow=hidden;rotatable=0;points=[[0,0.5],[1,0.5]];portConstraint=eastwest;whiteSpace=wrap;html=1;" parent="1pIJbLg3n0uSN6tYHmuE-12" vertex="1">
          <mxGeometry y="60" width="160" height="26" as="geometry" />
        </mxCell>
        <mxCell id="1pIJbLg3n0uSN6tYHmuE-16" value="+ LoadMap (String biome)" style="text;strokeColor=none;fillColor=none;align=left;verticalAlign=top;spacingLeft=4;spacingRight=4;overflow=hidden;rotatable=0;points=[[0,0.5],[1,0.5]];portConstraint=eastwest;whiteSpace=wrap;html=1;" parent="1pIJbLg3n0uSN6tYHmuE-12" vertex="1">
          <mxGeometry y="86" width="160" height="26" as="geometry" />
        </mxCell>
        <mxCell id="1pIJbLg3n0uSN6tYHmuE-17" value="+ GenerateMap (String biome)" style="text;strokeColor=none;fillColor=none;align=left;verticalAlign=top;spacingLeft=4;spacingRight=4;overflow=hidden;rotatable=0;points=[[0,0.5],[1,0.5]];portConstraint=eastwest;whiteSpace=wrap;html=1;" parent="1pIJbLg3n0uSN6tYHmuE-12" vertex="1">
          <mxGeometry y="112" width="160" height="38" as="geometry" />
        </mxCell>
        <mxCell id="1pIJbLg3n0uSN6tYHmuE-18" value="- NPCturn()" style="text;strokeColor=none;fillColor=none;align=left;verticalAlign=top;spacingLeft=4;spacingRight=4;overflow=hidden;rotatable=0;points=[[0,0.5],[1,0.5]];portConstraint=eastwest;whiteSpace=wrap;html=1;" parent="1pIJbLg3n0uSN6tYHmuE-12" vertex="1">
          <mxGeometry y="150" width="160" height="30" as="geometry" />
        </mxCell>
        <mxCell id="1pIJbLg3n0uSN6tYHmuE-19" value="+ MovePlayer(String direction)" style="text;strokeColor=none;fillColor=none;align=left;verticalAlign=top;spacingLeft=4;spacingRight=4;overflow=hidden;rotatable=0;points=[[0,0.5],[1,0.5]];portConstraint=eastwest;whiteSpace=wrap;html=1;" parent="1pIJbLg3n0uSN6tYHmuE-12" vertex="1">
          <mxGeometry y="180" width="160" height="38" as="geometry" />
        </mxCell>
        <mxCell id="1pIJbLg3n0uSN6tYHmuE-21" value="+ PlayerFight()" style="text;strokeColor=none;fillColor=none;align=left;verticalAlign=top;spacingLeft=4;spacingRight=4;overflow=hidden;rotatable=0;points=[[0,0.5],[1,0.5]];portConstraint=eastwest;whiteSpace=wrap;html=1;" parent="1pIJbLg3n0uSN6tYHmuE-12" vertex="1">
          <mxGeometry y="218" width="160" height="26" as="geometry" />
        </mxCell>
        <mxCell id="1pIJbLg3n0uSN6tYHmuE-22" value="+ PlayerInteract()" style="text;strokeColor=none;fillColor=none;align=left;verticalAlign=top;spacingLeft=4;spacingRight=4;overflow=hidden;rotatable=0;points=[[0,0.5],[1,0.5]];portConstraint=eastwest;whiteSpace=wrap;html=1;" parent="1pIJbLg3n0uSN6tYHmuE-12" vertex="1">
          <mxGeometry y="244" width="160" height="26" as="geometry" />
        </mxCell>
        <mxCell id="1pIJbLg3n0uSN6tYHmuE-77" value="+ GetMapRepresentation()" style="text;strokeColor=none;fillColor=none;align=left;verticalAlign=top;spacingLeft=4;spacingRight=4;overflow=hidden;rotatable=0;points=[[0,0.5],[1,0.5]];portConstraint=eastwest;whiteSpace=wrap;html=1;" parent="1pIJbLg3n0uSN6tYHmuE-12" vertex="1">
          <mxGeometry y="270" width="160" height="26" as="geometry" />
        </mxCell>
        <mxCell id="1pIJbLg3n0uSN6tYHmuE-94" style="edgeStyle=orthogonalEdgeStyle;rounded=0;orthogonalLoop=1;jettySize=auto;html=1;dashed=1;endArrow=block;endFill=0;" parent="1" source="1pIJbLg3n0uSN6tYHmuE-31" target="1pIJbLg3n0uSN6tYHmuE-81" edge="1">
          <mxGeometry relative="1" as="geometry" />
        </mxCell>
        <mxCell id="1pIJbLg3n0uSN6tYHmuE-104" style="edgeStyle=orthogonalEdgeStyle;rounded=0;orthogonalLoop=1;jettySize=auto;html=1;endArrow=open;endFill=0;dashed=1;" parent="1" source="1pIJbLg3n0uSN6tYHmuE-31" target="1knqwKVj045Zjyp5p2bE-28" edge="1">
          <mxGeometry relative="1" as="geometry">
            <Array as="points">
              <mxPoint x="1820" y="1117" />
            </Array>
          </mxGeometry>
        </mxCell>
        <mxCell id="1pIJbLg3n0uSN6tYHmuE-105" style="edgeStyle=orthogonalEdgeStyle;rounded=0;orthogonalLoop=1;jettySize=auto;html=1;endArrow=open;endFill=0;dashed=1;" parent="1" source="1pIJbLg3n0uSN6tYHmuE-31" target="1knqwKVj045Zjyp5p2bE-24" edge="1">
          <mxGeometry relative="1" as="geometry">
            <Array as="points">
              <mxPoint x="1640" y="1117" />
            </Array>
          </mxGeometry>
        </mxCell>
        <mxCell id="1pIJbLg3n0uSN6tYHmuE-106" style="edgeStyle=orthogonalEdgeStyle;rounded=0;orthogonalLoop=1;jettySize=auto;html=1;endArrow=open;endFill=0;dashed=1;" parent="1" source="1pIJbLg3n0uSN6tYHmuE-31" target="1knqwKVj045Zjyp5p2bE-4" edge="1">
          <mxGeometry relative="1" as="geometry">
            <Array as="points">
              <mxPoint x="1450" y="1117" />
            </Array>
          </mxGeometry>
        </mxCell>
        <mxCell id="1pIJbLg3n0uSN6tYHmuE-107" style="edgeStyle=orthogonalEdgeStyle;rounded=0;orthogonalLoop=1;jettySize=auto;html=1;endArrow=open;endFill=0;dashed=1;" parent="1" source="1pIJbLg3n0uSN6tYHmuE-31" target="1knqwKVj045Zjyp5p2bE-10" edge="1">
          <mxGeometry relative="1" as="geometry">
            <Array as="points">
              <mxPoint x="1250" y="1117" />
            </Array>
          </mxGeometry>
        </mxCell>
        <mxCell id="1pIJbLg3n0uSN6tYHmuE-108" style="edgeStyle=orthogonalEdgeStyle;rounded=0;orthogonalLoop=1;jettySize=auto;html=1;endArrow=open;endFill=0;dashed=1;" parent="1" source="1pIJbLg3n0uSN6tYHmuE-31" target="1knqwKVj045Zjyp5p2bE-19" edge="1">
          <mxGeometry relative="1" as="geometry">
            <Array as="points">
              <mxPoint x="1080" y="1117" />
            </Array>
          </mxGeometry>
        </mxCell>
        <mxCell id="erENeKZ2Nr3gwHFPNP4--9" style="edgeStyle=orthogonalEdgeStyle;rounded=0;orthogonalLoop=1;jettySize=auto;html=1;endArrow=open;endFill=0;dashed=1;" parent="1" source="1pIJbLg3n0uSN6tYHmuE-31" target="erENeKZ2Nr3gwHFPNP4--1" edge="1">
          <mxGeometry relative="1" as="geometry">
            <Array as="points">
              <mxPoint x="2140" y="1127" />
            </Array>
          </mxGeometry>
        </mxCell>
        <mxCell id="1pIJbLg3n0uSN6tYHmuE-31" value="JungleFactory" style="swimlane;fontStyle=1;align=center;verticalAlign=top;childLayout=stackLayout;horizontal=1;startSize=26;horizontalStack=0;resizeParent=1;resizeParentMax=0;resizeLast=0;collapsible=1;marginBottom=0;whiteSpace=wrap;html=1;" parent="1" vertex="1">
          <mxGeometry x="2250" y="1110" width="160" height="34" as="geometry" />
        </mxCell>
        <mxCell id="1pIJbLg3n0uSN6tYHmuE-33" value="" style="line;strokeWidth=1;fillColor=none;align=left;verticalAlign=middle;spacingTop=-1;spacingLeft=3;spacingRight=3;rotatable=0;labelPosition=right;points=[];portConstraint=eastwest;strokeColor=inherit;" parent="1pIJbLg3n0uSN6tYHmuE-31" vertex="1">
          <mxGeometry y="26" width="160" height="8" as="geometry" />
        </mxCell>
        <mxCell id="1pIJbLg3n0uSN6tYHmuE-93" style="edgeStyle=orthogonalEdgeStyle;rounded=0;orthogonalLoop=1;jettySize=auto;html=1;endArrow=block;endFill=0;" parent="1" source="1pIJbLg3n0uSN6tYHmuE-39" target="1pIJbLg3n0uSN6tYHmuE-59" edge="1">
          <mxGeometry relative="1" as="geometry">
            <Array as="points">
              <mxPoint x="1150" y="950" />
              <mxPoint x="1150" y="950" />
            </Array>
          </mxGeometry>
        </mxCell>
        <mxCell id="erENeKZ2Nr3gwHFPNP4--7" style="edgeStyle=orthogonalEdgeStyle;rounded=0;orthogonalLoop=1;jettySize=auto;html=1;endArrow=open;endFill=0;" parent="1" source="1pIJbLg3n0uSN6tYHmuE-39" target="1pIJbLg3n0uSN6tYHmuE-111" edge="1">
          <mxGeometry relative="1" as="geometry">
            <Array as="points">
              <mxPoint x="1920" y="770" />
              <mxPoint x="1920" y="770" />
            </Array>
          </mxGeometry>
        </mxCell>
        <mxCell id="1pIJbLg3n0uSN6tYHmuE-39" value="&amp;lt;&amp;lt;Abstract&amp;gt;&amp;gt;&amp;nbsp;Animal" style="swimlane;fontStyle=1;align=center;verticalAlign=top;childLayout=stackLayout;horizontal=1;startSize=26;horizontalStack=0;resizeParent=1;resizeParentMax=0;resizeLast=0;collapsible=1;marginBottom=0;whiteSpace=wrap;html=1;" parent="1" vertex="1">
          <mxGeometry x="1880" y="870" width="160" height="60" as="geometry" />
        </mxCell>
        <mxCell id="1pIJbLg3n0uSN6tYHmuE-130" value="# current_hunger: int" style="text;strokeColor=none;fillColor=none;align=left;verticalAlign=top;spacingLeft=4;spacingRight=4;overflow=hidden;rotatable=0;points=[[0,0.5],[1,0.5]];portConstraint=eastwest;whiteSpace=wrap;html=1;" parent="1pIJbLg3n0uSN6tYHmuE-39" vertex="1">
          <mxGeometry y="26" width="160" height="26" as="geometry" />
        </mxCell>
        <mxCell id="1pIJbLg3n0uSN6tYHmuE-41" value="" style="line;strokeWidth=1;fillColor=none;align=left;verticalAlign=middle;spacingTop=-1;spacingLeft=3;spacingRight=3;rotatable=0;labelPosition=right;points=[];portConstraint=eastwest;strokeColor=inherit;" parent="1pIJbLg3n0uSN6tYHmuE-39" vertex="1">
          <mxGeometry y="52" width="160" height="8" as="geometry" />
        </mxCell>
        <mxCell id="1pIJbLg3n0uSN6tYHmuE-92" style="edgeStyle=orthogonalEdgeStyle;rounded=0;orthogonalLoop=1;jettySize=auto;html=1;endArrow=block;endFill=0;" parent="1" source="1pIJbLg3n0uSN6tYHmuE-43" target="1pIJbLg3n0uSN6tYHmuE-59" edge="1">
          <mxGeometry relative="1" as="geometry">
            <Array as="points">
              <mxPoint x="1780" y="950" />
            </Array>
          </mxGeometry>
        </mxCell>
        <mxCell id="1pIJbLg3n0uSN6tYHmuE-43" value="&amp;lt;&amp;lt;Abstract&amp;gt;&amp;gt;&amp;nbsp;Tree" style="swimlane;fontStyle=1;align=center;verticalAlign=top;childLayout=stackLayout;horizontal=1;startSize=26;horizontalStack=0;resizeParent=1;resizeParentMax=0;resizeLast=0;collapsible=1;marginBottom=0;whiteSpace=wrap;html=1;" parent="1" vertex="1">
          <mxGeometry x="1700" y="904" width="160" height="34" as="geometry" />
        </mxCell>
        <mxCell id="1pIJbLg3n0uSN6tYHmuE-45" value="" style="line;strokeWidth=1;fillColor=none;align=left;verticalAlign=middle;spacingTop=-1;spacingLeft=3;spacingRight=3;rotatable=0;labelPosition=right;points=[];portConstraint=eastwest;strokeColor=inherit;" parent="1pIJbLg3n0uSN6tYHmuE-43" vertex="1">
          <mxGeometry y="26" width="160" height="8" as="geometry" />
        </mxCell>
        <mxCell id="1pIJbLg3n0uSN6tYHmuE-91" style="edgeStyle=orthogonalEdgeStyle;rounded=0;orthogonalLoop=1;jettySize=auto;html=1;endArrow=block;endFill=0;" parent="1" source="1pIJbLg3n0uSN6tYHmuE-47" target="1pIJbLg3n0uSN6tYHmuE-59" edge="1">
          <mxGeometry relative="1" as="geometry">
            <Array as="points">
              <mxPoint x="1598" y="950" />
            </Array>
          </mxGeometry>
        </mxCell>
        <mxCell id="1pIJbLg3n0uSN6tYHmuE-47" value="&amp;lt;&amp;lt;Abstract&amp;gt;&amp;gt;&amp;nbsp;Decoration" style="swimlane;fontStyle=1;align=center;verticalAlign=top;childLayout=stackLayout;horizontal=1;startSize=26;horizontalStack=0;resizeParent=1;resizeParentMax=0;resizeLast=0;collapsible=1;marginBottom=0;whiteSpace=wrap;html=1;" parent="1" vertex="1">
          <mxGeometry x="1517.5" y="904" width="160" height="34" as="geometry">
            <mxRectangle x="1900" y="751" width="100" height="30" as="alternateBounds" />
          </mxGeometry>
        </mxCell>
        <mxCell id="1pIJbLg3n0uSN6tYHmuE-49" value="" style="line;strokeWidth=1;fillColor=none;align=left;verticalAlign=middle;spacingTop=-1;spacingLeft=3;spacingRight=3;rotatable=0;labelPosition=right;points=[];portConstraint=eastwest;strokeColor=inherit;" parent="1pIJbLg3n0uSN6tYHmuE-47" vertex="1">
          <mxGeometry y="26" width="160" height="8" as="geometry" />
        </mxCell>
        <mxCell id="1pIJbLg3n0uSN6tYHmuE-90" style="edgeStyle=orthogonalEdgeStyle;rounded=0;orthogonalLoop=1;jettySize=auto;html=1;endArrow=block;endFill=0;" parent="1" source="1pIJbLg3n0uSN6tYHmuE-51" target="1pIJbLg3n0uSN6tYHmuE-59" edge="1">
          <mxGeometry relative="1" as="geometry">
            <Array as="points">
              <mxPoint x="1410" y="950" />
            </Array>
          </mxGeometry>
        </mxCell>
        <mxCell id="1pIJbLg3n0uSN6tYHmuE-51" value="&amp;lt;&amp;lt;Abstract&amp;gt;&amp;gt;&amp;nbsp;Fruit" style="swimlane;fontStyle=1;align=center;verticalAlign=top;childLayout=stackLayout;horizontal=1;startSize=26;horizontalStack=0;resizeParent=1;resizeParentMax=0;resizeLast=0;collapsible=1;marginBottom=0;whiteSpace=wrap;html=1;" parent="1" vertex="1">
          <mxGeometry x="1330" y="904" width="160" height="34" as="geometry" />
        </mxCell>
        <mxCell id="1pIJbLg3n0uSN6tYHmuE-53" value="" style="line;strokeWidth=1;fillColor=none;align=left;verticalAlign=middle;spacingTop=-1;spacingLeft=3;spacingRight=3;rotatable=0;labelPosition=right;points=[];portConstraint=eastwest;strokeColor=inherit;" parent="1pIJbLg3n0uSN6tYHmuE-51" vertex="1">
          <mxGeometry y="26" width="160" height="8" as="geometry" />
        </mxCell>
        <mxCell id="1pIJbLg3n0uSN6tYHmuE-88" style="edgeStyle=orthogonalEdgeStyle;rounded=0;orthogonalLoop=1;jettySize=auto;html=1;endArrow=block;endFill=0;" parent="1" source="1pIJbLg3n0uSN6tYHmuE-55" target="1pIJbLg3n0uSN6tYHmuE-59" edge="1">
          <mxGeometry relative="1" as="geometry">
            <Array as="points">
              <mxPoint x="1030" y="950" />
            </Array>
          </mxGeometry>
        </mxCell>
        <mxCell id="1pIJbLg3n0uSN6tYHmuE-55" value="&amp;lt;&amp;lt;Abstract&amp;gt;&amp;gt; EmptySpace" style="swimlane;fontStyle=1;align=center;verticalAlign=top;childLayout=stackLayout;horizontal=1;startSize=26;horizontalStack=0;resizeParent=1;resizeParentMax=0;resizeLast=0;collapsible=1;marginBottom=0;whiteSpace=wrap;html=1;" parent="1" vertex="1">
          <mxGeometry x="950" y="904" width="160" height="34" as="geometry" />
        </mxCell>
        <mxCell id="1pIJbLg3n0uSN6tYHmuE-57" value="" style="line;strokeWidth=1;fillColor=none;align=left;verticalAlign=middle;spacingTop=-1;spacingLeft=3;spacingRight=3;rotatable=0;labelPosition=right;points=[];portConstraint=eastwest;strokeColor=inherit;" parent="1pIJbLg3n0uSN6tYHmuE-55" vertex="1">
          <mxGeometry y="26" width="160" height="8" as="geometry" />
        </mxCell>
        <mxCell id="1pIJbLg3n0uSN6tYHmuE-59" value="&amp;lt;&amp;lt;Abstract&amp;gt;&amp;gt; MapObject" style="swimlane;fontStyle=1;align=center;verticalAlign=top;childLayout=stackLayout;horizontal=1;startSize=26;horizontalStack=0;resizeParent=1;resizeParentMax=0;resizeLast=0;collapsible=1;marginBottom=0;whiteSpace=wrap;html=1;" parent="1" vertex="1">
          <mxGeometry x="740" y="820" width="160" height="270" as="geometry" />
        </mxCell>
        <mxCell id="1knqwKVj045Zjyp5p2bE-37" value="# color: String" style="text;strokeColor=none;fillColor=none;align=left;verticalAlign=top;spacingLeft=4;spacingRight=4;overflow=hidden;rotatable=0;points=[[0,0.5],[1,0.5]];portConstraint=eastwest;whiteSpace=wrap;html=1;" vertex="1" parent="1pIJbLg3n0uSN6tYHmuE-59">
          <mxGeometry y="26" width="160" height="26" as="geometry" />
        </mxCell>
        <mxCell id="1pIJbLg3n0uSN6tYHmuE-60" value="# representation: String" style="text;strokeColor=none;fillColor=none;align=left;verticalAlign=top;spacingLeft=4;spacingRight=4;overflow=hidden;rotatable=0;points=[[0,0.5],[1,0.5]];portConstraint=eastwest;whiteSpace=wrap;html=1;" parent="1pIJbLg3n0uSN6tYHmuE-59" vertex="1">
          <mxGeometry y="52" width="160" height="26" as="geometry" />
        </mxCell>
        <mxCell id="1pIJbLg3n0uSN6tYHmuE-71" value="# positionX: int" style="text;strokeColor=none;fillColor=none;align=left;verticalAlign=top;spacingLeft=4;spacingRight=4;overflow=hidden;rotatable=0;points=[[0,0.5],[1,0.5]];portConstraint=eastwest;whiteSpace=wrap;html=1;" parent="1pIJbLg3n0uSN6tYHmuE-59" vertex="1">
          <mxGeometry y="78" width="160" height="26" as="geometry" />
        </mxCell>
        <mxCell id="1pIJbLg3n0uSN6tYHmuE-72" value="# positionY: int" style="text;strokeColor=none;fillColor=none;align=left;verticalAlign=top;spacingLeft=4;spacingRight=4;overflow=hidden;rotatable=0;points=[[0,0.5],[1,0.5]];portConstraint=eastwest;whiteSpace=wrap;html=1;" parent="1pIJbLg3n0uSN6tYHmuE-59" vertex="1">
          <mxGeometry y="104" width="160" height="26" as="geometry" />
        </mxCell>
        <mxCell id="1pIJbLg3n0uSN6tYHmuE-61" value="" style="line;strokeWidth=1;fillColor=none;align=left;verticalAlign=middle;spacingTop=-1;spacingLeft=3;spacingRight=3;rotatable=0;labelPosition=right;points=[];portConstraint=eastwest;strokeColor=inherit;" parent="1pIJbLg3n0uSN6tYHmuE-59" vertex="1">
          <mxGeometry y="130" width="160" height="8" as="geometry" />
        </mxCell>
        <mxCell id="1pIJbLg3n0uSN6tYHmuE-62" value="+ getRepresentation(): String" style="text;strokeColor=none;fillColor=none;align=left;verticalAlign=top;spacingLeft=4;spacingRight=4;overflow=hidden;rotatable=0;points=[[0,0.5],[1,0.5]];portConstraint=eastwest;whiteSpace=wrap;html=1;" parent="1pIJbLg3n0uSN6tYHmuE-59" vertex="1">
          <mxGeometry y="138" width="160" height="38" as="geometry" />
        </mxCell>
        <mxCell id="1pIJbLg3n0uSN6tYHmuE-73" value="+ getPosX(): int" style="text;strokeColor=none;fillColor=none;align=left;verticalAlign=top;spacingLeft=4;spacingRight=4;overflow=hidden;rotatable=0;points=[[0,0.5],[1,0.5]];portConstraint=eastwest;whiteSpace=wrap;html=1;" parent="1pIJbLg3n0uSN6tYHmuE-59" vertex="1">
          <mxGeometry y="176" width="160" height="26" as="geometry" />
        </mxCell>
        <mxCell id="1pIJbLg3n0uSN6tYHmuE-74" value="+ getPosY(): int" style="text;strokeColor=none;fillColor=none;align=left;verticalAlign=top;spacingLeft=4;spacingRight=4;overflow=hidden;rotatable=0;points=[[0,0.5],[1,0.5]];portConstraint=eastwest;whiteSpace=wrap;html=1;" parent="1pIJbLg3n0uSN6tYHmuE-59" vertex="1">
          <mxGeometry y="202" width="160" height="26" as="geometry" />
        </mxCell>
        <mxCell id="1pIJbLg3n0uSN6tYHmuE-109" value="+ &amp;lt;&amp;lt;abstract&amp;gt;&amp;gt; Play(string map)" style="text;strokeColor=none;fillColor=none;align=left;verticalAlign=top;spacingLeft=4;spacingRight=4;overflow=hidden;rotatable=0;points=[[0,0.5],[1,0.5]];portConstraint=eastwest;whiteSpace=wrap;html=1;" parent="1pIJbLg3n0uSN6tYHmuE-59" vertex="1">
          <mxGeometry y="228" width="160" height="42" as="geometry" />
        </mxCell>
        <mxCell id="1pIJbLg3n0uSN6tYHmuE-89" style="edgeStyle=orthogonalEdgeStyle;rounded=0;orthogonalLoop=1;jettySize=auto;html=1;endArrow=block;endFill=0;" parent="1" source="1pIJbLg3n0uSN6tYHmuE-75" target="1pIJbLg3n0uSN6tYHmuE-59" edge="1">
          <mxGeometry relative="1" as="geometry">
            <Array as="points">
              <mxPoint x="1220" y="950" />
            </Array>
          </mxGeometry>
        </mxCell>
        <mxCell id="1pIJbLg3n0uSN6tYHmuE-75" value="&amp;lt;&amp;lt;Abstract&amp;gt;&amp;gt;&amp;nbsp;Mushroom" style="swimlane;fontStyle=1;align=center;verticalAlign=top;childLayout=stackLayout;horizontal=1;startSize=26;horizontalStack=0;resizeParent=1;resizeParentMax=0;resizeLast=0;collapsible=1;marginBottom=0;whiteSpace=wrap;html=1;" parent="1" vertex="1">
          <mxGeometry x="1140" y="904" width="160" height="34" as="geometry" />
        </mxCell>
        <mxCell id="1pIJbLg3n0uSN6tYHmuE-76" value="" style="line;strokeWidth=1;fillColor=none;align=left;verticalAlign=middle;spacingTop=-1;spacingLeft=3;spacingRight=3;rotatable=0;labelPosition=right;points=[];portConstraint=eastwest;strokeColor=inherit;" parent="1pIJbLg3n0uSN6tYHmuE-75" vertex="1">
          <mxGeometry y="26" width="160" height="8" as="geometry" />
        </mxCell>
        <mxCell id="1pIJbLg3n0uSN6tYHmuE-95" style="edgeStyle=orthogonalEdgeStyle;rounded=0;orthogonalLoop=1;jettySize=auto;html=1;endArrow=block;endFill=0;dashed=1;" parent="1" source="1pIJbLg3n0uSN6tYHmuE-78" target="1pIJbLg3n0uSN6tYHmuE-81" edge="1">
          <mxGeometry relative="1" as="geometry" />
        </mxCell>
        <mxCell id="1pIJbLg3n0uSN6tYHmuE-98" style="edgeStyle=orthogonalEdgeStyle;rounded=0;orthogonalLoop=1;jettySize=auto;html=1;endArrow=open;endFill=0;dashed=1;" parent="1" source="1pIJbLg3n0uSN6tYHmuE-78" target="1knqwKVj045Zjyp5p2bE-30" edge="1">
          <mxGeometry relative="1" as="geometry" />
        </mxCell>
        <mxCell id="1pIJbLg3n0uSN6tYHmuE-99" style="edgeStyle=orthogonalEdgeStyle;rounded=0;orthogonalLoop=1;jettySize=auto;html=1;endArrow=open;endFill=0;dashed=1;" parent="1" source="1pIJbLg3n0uSN6tYHmuE-78" target="1knqwKVj045Zjyp5p2bE-22" edge="1">
          <mxGeometry relative="1" as="geometry">
            <mxPoint x="1600" y="840" as="targetPoint" />
          </mxGeometry>
        </mxCell>
        <mxCell id="1pIJbLg3n0uSN6tYHmuE-100" style="edgeStyle=orthogonalEdgeStyle;rounded=0;orthogonalLoop=1;jettySize=auto;html=1;endArrow=open;endFill=0;dashed=1;" parent="1" source="1pIJbLg3n0uSN6tYHmuE-78" edge="1">
          <mxGeometry relative="1" as="geometry">
            <mxPoint x="1410" y="830" as="targetPoint" />
          </mxGeometry>
        </mxCell>
        <mxCell id="1pIJbLg3n0uSN6tYHmuE-101" style="edgeStyle=orthogonalEdgeStyle;rounded=0;orthogonalLoop=1;jettySize=auto;html=1;endArrow=open;endFill=0;dashed=1;" parent="1" source="1pIJbLg3n0uSN6tYHmuE-78" target="1knqwKVj045Zjyp5p2bE-7" edge="1">
          <mxGeometry relative="1" as="geometry" />
        </mxCell>
        <mxCell id="erENeKZ2Nr3gwHFPNP4--8" style="edgeStyle=orthogonalEdgeStyle;rounded=0;orthogonalLoop=1;jettySize=auto;html=1;endArrow=open;endFill=0;dashed=1;" parent="1" source="1pIJbLg3n0uSN6tYHmuE-78" target="erENeKZ2Nr3gwHFPNP4--3" edge="1">
          <mxGeometry relative="1" as="geometry">
            <Array as="points">
              <mxPoint x="2150" y="780" />
            </Array>
          </mxGeometry>
        </mxCell>
        <mxCell id="1pIJbLg3n0uSN6tYHmuE-78" value="ForerstFactory" style="swimlane;fontStyle=1;align=center;verticalAlign=top;childLayout=stackLayout;horizontal=1;startSize=26;horizontalStack=0;resizeParent=1;resizeParentMax=0;resizeLast=0;collapsible=1;marginBottom=0;whiteSpace=wrap;html=1;" parent="1" vertex="1">
          <mxGeometry x="2250" y="750" width="160" height="34" as="geometry" />
        </mxCell>
        <mxCell id="1pIJbLg3n0uSN6tYHmuE-79" value="" style="line;strokeWidth=1;fillColor=none;align=left;verticalAlign=middle;spacingTop=-1;spacingLeft=3;spacingRight=3;rotatable=0;labelPosition=right;points=[];portConstraint=eastwest;strokeColor=inherit;" parent="1pIJbLg3n0uSN6tYHmuE-78" vertex="1">
          <mxGeometry y="26" width="160" height="8" as="geometry" />
        </mxCell>
        <mxCell id="1pIJbLg3n0uSN6tYHmuE-81" value="&amp;lt;&amp;lt;Interface&amp;gt;&amp;gt; Factory" style="swimlane;fontStyle=1;align=center;verticalAlign=top;childLayout=stackLayout;horizontal=1;startSize=26;horizontalStack=0;resizeParent=1;resizeParentMax=0;resizeLast=0;collapsible=1;marginBottom=0;whiteSpace=wrap;html=1;" parent="1" vertex="1">
          <mxGeometry x="2250" y="840" width="160" height="250" as="geometry" />
        </mxCell>
        <mxCell id="1pIJbLg3n0uSN6tYHmuE-82" value="" style="line;strokeWidth=1;fillColor=none;align=left;verticalAlign=middle;spacingTop=-1;spacingLeft=3;spacingRight=3;rotatable=0;labelPosition=right;points=[];portConstraint=eastwest;strokeColor=inherit;" parent="1pIJbLg3n0uSN6tYHmuE-81" vertex="1">
          <mxGeometry y="26" width="160" height="8" as="geometry" />
        </mxCell>
        <mxCell id="1pIJbLg3n0uSN6tYHmuE-83" value="+ InstanciateAnimal(): Animal" style="text;strokeColor=none;fillColor=none;align=left;verticalAlign=top;spacingLeft=4;spacingRight=4;overflow=hidden;rotatable=0;points=[[0,0.5],[1,0.5]];portConstraint=eastwest;whiteSpace=wrap;html=1;" parent="1pIJbLg3n0uSN6tYHmuE-81" vertex="1">
          <mxGeometry y="34" width="160" height="36" as="geometry" />
        </mxCell>
        <mxCell id="1pIJbLg3n0uSN6tYHmuE-84" value="+ InstanciateTree(): Tree" style="text;strokeColor=none;fillColor=none;align=left;verticalAlign=top;spacingLeft=4;spacingRight=4;overflow=hidden;rotatable=0;points=[[0,0.5],[1,0.5]];portConstraint=eastwest;whiteSpace=wrap;html=1;" parent="1pIJbLg3n0uSN6tYHmuE-81" vertex="1">
          <mxGeometry y="70" width="160" height="30" as="geometry" />
        </mxCell>
        <mxCell id="1pIJbLg3n0uSN6tYHmuE-85" value="+ InstanciateDecoration(): Decoration" style="text;strokeColor=none;fillColor=none;align=left;verticalAlign=top;spacingLeft=4;spacingRight=4;overflow=hidden;rotatable=0;points=[[0,0.5],[1,0.5]];portConstraint=eastwest;whiteSpace=wrap;html=1;" parent="1pIJbLg3n0uSN6tYHmuE-81" vertex="1">
          <mxGeometry y="100" width="160" height="40" as="geometry" />
        </mxCell>
        <mxCell id="1pIJbLg3n0uSN6tYHmuE-86" value="+ InstanciateFruit(): Fruit" style="text;strokeColor=none;fillColor=none;align=left;verticalAlign=top;spacingLeft=4;spacingRight=4;overflow=hidden;rotatable=0;points=[[0,0.5],[1,0.5]];portConstraint=eastwest;whiteSpace=wrap;html=1;" parent="1pIJbLg3n0uSN6tYHmuE-81" vertex="1">
          <mxGeometry y="140" width="160" height="30" as="geometry" />
        </mxCell>
        <mxCell id="1pIJbLg3n0uSN6tYHmuE-87" value="+ InstanciateEmptyScape(): EmptySpace" style="text;strokeColor=none;fillColor=none;align=left;verticalAlign=top;spacingLeft=4;spacingRight=4;overflow=hidden;rotatable=0;points=[[0,0.5],[1,0.5]];portConstraint=eastwest;whiteSpace=wrap;html=1;" parent="1pIJbLg3n0uSN6tYHmuE-81" vertex="1">
          <mxGeometry y="170" width="160" height="40" as="geometry" />
        </mxCell>
        <mxCell id="1knqwKVj045Zjyp5p2bE-39" value="+ instanciateMushroom(): Fruit" style="text;strokeColor=none;fillColor=none;align=left;verticalAlign=top;spacingLeft=4;spacingRight=4;overflow=hidden;rotatable=0;points=[[0,0.5],[1,0.5]];portConstraint=eastwest;whiteSpace=wrap;html=1;" vertex="1" parent="1pIJbLg3n0uSN6tYHmuE-81">
          <mxGeometry y="210" width="160" height="40" as="geometry" />
        </mxCell>
        <mxCell id="1pIJbLg3n0uSN6tYHmuE-111" value="&amp;lt;&amp;lt;Abstract&amp;gt;&amp;gt; AnimalState" style="swimlane;fontStyle=1;align=center;verticalAlign=top;childLayout=stackLayout;horizontal=1;startSize=26;horizontalStack=0;resizeParent=1;resizeParentMax=0;resizeLast=0;collapsible=1;marginBottom=0;whiteSpace=wrap;html=1;" parent="1" vertex="1">
          <mxGeometry x="1850" y="670" width="160" height="68" as="geometry" />
        </mxCell>
        <mxCell id="1pIJbLg3n0uSN6tYHmuE-113" value="" style="line;strokeWidth=1;fillColor=none;align=left;verticalAlign=middle;spacingTop=-1;spacingLeft=3;spacingRight=3;rotatable=0;labelPosition=right;points=[];portConstraint=eastwest;strokeColor=inherit;" parent="1pIJbLg3n0uSN6tYHmuE-111" vertex="1">
          <mxGeometry y="26" width="160" height="8" as="geometry" />
        </mxCell>
        <mxCell id="1knqwKVj045Zjyp5p2bE-41" value="+ play(String map, Animal animal)" style="text;strokeColor=none;fillColor=none;align=left;verticalAlign=top;spacingLeft=4;spacingRight=4;overflow=hidden;rotatable=0;points=[[0,0.5],[1,0.5]];portConstraint=eastwest;whiteSpace=wrap;html=1;" vertex="1" parent="1pIJbLg3n0uSN6tYHmuE-111">
          <mxGeometry y="34" width="160" height="34" as="geometry" />
        </mxCell>
        <mxCell id="1pIJbLg3n0uSN6tYHmuE-116" value="# currentState 1" style="text;html=1;align=center;verticalAlign=middle;resizable=0;points=[];autosize=1;strokeColor=none;fillColor=none;" parent="1" vertex="1">
          <mxGeometry x="1915" y="784" width="110" height="30" as="geometry" />
        </mxCell>
        <mxCell id="1pIJbLg3n0uSN6tYHmuE-131" style="edgeStyle=orthogonalEdgeStyle;rounded=0;orthogonalLoop=1;jettySize=auto;html=1;" parent="1" source="1pIJbLg3n0uSN6tYHmuE-117" target="1pIJbLg3n0uSN6tYHmuE-111" edge="1">
          <mxGeometry relative="1" as="geometry">
            <Array as="points">
              <mxPoint x="2040" y="670" />
              <mxPoint x="2150" y="670" />
            </Array>
          </mxGeometry>
        </mxCell>
        <mxCell id="1pIJbLg3n0uSN6tYHmuE-117" value="HungryState" style="swimlane;fontStyle=1;align=center;verticalAlign=top;childLayout=stackLayout;horizontal=1;startSize=26;horizontalStack=0;resizeParent=1;resizeParentMax=0;resizeLast=0;collapsible=1;marginBottom=0;whiteSpace=wrap;html=1;" parent="1" vertex="1">
          <mxGeometry x="1900" y="590" width="160" height="34" as="geometry" />
        </mxCell>
        <mxCell id="1pIJbLg3n0uSN6tYHmuE-119" value="" style="line;strokeWidth=1;fillColor=none;align=left;verticalAlign=middle;spacingTop=-1;spacingLeft=3;spacingRight=3;rotatable=0;labelPosition=right;points=[];portConstraint=eastwest;strokeColor=inherit;" parent="1pIJbLg3n0uSN6tYHmuE-117" vertex="1">
          <mxGeometry y="26" width="160" height="8" as="geometry" />
        </mxCell>
        <mxCell id="1pIJbLg3n0uSN6tYHmuE-133" style="edgeStyle=orthogonalEdgeStyle;rounded=0;orthogonalLoop=1;jettySize=auto;html=1;" parent="1" source="1pIJbLg3n0uSN6tYHmuE-123" target="1pIJbLg3n0uSN6tYHmuE-111" edge="1">
          <mxGeometry relative="1" as="geometry">
            <Array as="points">
              <mxPoint x="2260" y="670" />
              <mxPoint x="2150" y="670" />
            </Array>
          </mxGeometry>
        </mxCell>
        <mxCell id="1pIJbLg3n0uSN6tYHmuE-123" value="FriendlyState" style="swimlane;fontStyle=1;align=center;verticalAlign=top;childLayout=stackLayout;horizontal=1;startSize=26;horizontalStack=0;resizeParent=1;resizeParentMax=0;resizeLast=0;collapsible=1;marginBottom=0;whiteSpace=wrap;html=1;" parent="1" vertex="1">
          <mxGeometry x="2240" y="590" width="160" height="34" as="geometry" />
        </mxCell>
        <mxCell id="1pIJbLg3n0uSN6tYHmuE-124" value="" style="line;strokeWidth=1;fillColor=none;align=left;verticalAlign=middle;spacingTop=-1;spacingLeft=3;spacingRight=3;rotatable=0;labelPosition=right;points=[];portConstraint=eastwest;strokeColor=inherit;" parent="1pIJbLg3n0uSN6tYHmuE-123" vertex="1">
          <mxGeometry y="26" width="160" height="8" as="geometry" />
        </mxCell>
        <mxCell id="1pIJbLg3n0uSN6tYHmuE-132" style="edgeStyle=orthogonalEdgeStyle;rounded=0;orthogonalLoop=1;jettySize=auto;html=1;" parent="1" source="1pIJbLg3n0uSN6tYHmuE-127" target="1pIJbLg3n0uSN6tYHmuE-111" edge="1">
          <mxGeometry relative="1" as="geometry">
            <Array as="points">
              <mxPoint x="2150" y="723" />
            </Array>
          </mxGeometry>
        </mxCell>
        <mxCell id="1pIJbLg3n0uSN6tYHmuE-127" value="NotHungryState" style="swimlane;fontStyle=1;align=center;verticalAlign=top;childLayout=stackLayout;horizontal=1;startSize=26;horizontalStack=0;resizeParent=1;resizeParentMax=0;resizeLast=0;collapsible=1;marginBottom=0;whiteSpace=wrap;html=1;" parent="1" vertex="1">
          <mxGeometry x="2070" y="590" width="160" height="34" as="geometry" />
        </mxCell>
        <mxCell id="1pIJbLg3n0uSN6tYHmuE-128" value="" style="line;strokeWidth=1;fillColor=none;align=left;verticalAlign=middle;spacingTop=-1;spacingLeft=3;spacingRight=3;rotatable=0;labelPosition=right;points=[];portConstraint=eastwest;strokeColor=inherit;" parent="1pIJbLg3n0uSN6tYHmuE-127" vertex="1">
          <mxGeometry y="26" width="160" height="8" as="geometry" />
        </mxCell>
        <mxCell id="1pIJbLg3n0uSN6tYHmuE-141" style="edgeStyle=orthogonalEdgeStyle;rounded=0;orthogonalLoop=1;jettySize=auto;html=1;endArrow=open;endFill=0;" parent="1" source="1pIJbLg3n0uSN6tYHmuE-136" target="1pIJbLg3n0uSN6tYHmuE-12" edge="1">
          <mxGeometry relative="1" as="geometry" />
        </mxCell>
        <mxCell id="1pIJbLg3n0uSN6tYHmuE-143" style="edgeStyle=orthogonalEdgeStyle;rounded=0;orthogonalLoop=1;jettySize=auto;html=1;endArrow=open;endFill=0;" parent="1" source="1pIJbLg3n0uSN6tYHmuE-136" target="1pIJbLg3n0uSN6tYHmuE-144" edge="1">
          <mxGeometry relative="1" as="geometry">
            <mxPoint x="220" y="460" as="targetPoint" />
          </mxGeometry>
        </mxCell>
        <mxCell id="1pIJbLg3n0uSN6tYHmuE-136" value="IHM" style="swimlane;fontStyle=1;align=center;verticalAlign=top;childLayout=stackLayout;horizontal=1;startSize=26;horizontalStack=0;resizeParent=1;resizeParentMax=0;resizeLast=0;collapsible=1;marginBottom=0;whiteSpace=wrap;html=1;" parent="1" vertex="1">
          <mxGeometry x="334" y="90" width="160" height="86" as="geometry" />
        </mxCell>
        <mxCell id="1pIJbLg3n0uSN6tYHmuE-137" value="???" style="text;strokeColor=none;fillColor=none;align=left;verticalAlign=top;spacingLeft=4;spacingRight=4;overflow=hidden;rotatable=0;points=[[0,0.5],[1,0.5]];portConstraint=eastwest;whiteSpace=wrap;html=1;" parent="1pIJbLg3n0uSN6tYHmuE-136" vertex="1">
          <mxGeometry y="26" width="160" height="26" as="geometry" />
        </mxCell>
        <mxCell id="1pIJbLg3n0uSN6tYHmuE-138" value="" style="line;strokeWidth=1;fillColor=none;align=left;verticalAlign=middle;spacingTop=-1;spacingLeft=3;spacingRight=3;rotatable=0;labelPosition=right;points=[];portConstraint=eastwest;strokeColor=inherit;" parent="1pIJbLg3n0uSN6tYHmuE-136" vertex="1">
          <mxGeometry y="52" width="160" height="8" as="geometry" />
        </mxCell>
        <mxCell id="1pIJbLg3n0uSN6tYHmuE-139" value="???" style="text;strokeColor=none;fillColor=none;align=left;verticalAlign=top;spacingLeft=4;spacingRight=4;overflow=hidden;rotatable=0;points=[[0,0.5],[1,0.5]];portConstraint=eastwest;whiteSpace=wrap;html=1;" parent="1pIJbLg3n0uSN6tYHmuE-136" vertex="1">
          <mxGeometry y="60" width="160" height="26" as="geometry" />
        </mxCell>
        <mxCell id="1pIJbLg3n0uSN6tYHmuE-142" value="- map 1" style="text;html=1;align=center;verticalAlign=middle;resizable=0;points=[];autosize=1;strokeColor=none;fillColor=none;" parent="1" vertex="1">
          <mxGeometry x="530" y="130" width="60" height="30" as="geometry" />
        </mxCell>
        <mxCell id="1pIJbLg3n0uSN6tYHmuE-149" style="edgeStyle=orthogonalEdgeStyle;rounded=0;orthogonalLoop=1;jettySize=auto;html=1;endArrow=open;endFill=0;" parent="1" source="1pIJbLg3n0uSN6tYHmuE-144" target="1pIJbLg3n0uSN6tYHmuE-136" edge="1">
          <mxGeometry relative="1" as="geometry">
            <Array as="points">
              <mxPoint x="220" y="140" />
            </Array>
          </mxGeometry>
        </mxCell>
        <mxCell id="1pIJbLg3n0uSN6tYHmuE-152" style="edgeStyle=orthogonalEdgeStyle;rounded=0;orthogonalLoop=1;jettySize=auto;html=1;endArrow=open;endFill=0;" parent="1" source="1pIJbLg3n0uSN6tYHmuE-144" target="1pIJbLg3n0uSN6tYHmuE-12" edge="1">
          <mxGeometry relative="1" as="geometry">
            <Array as="points">
              <mxPoint x="460" y="607" />
              <mxPoint x="460" y="607" />
            </Array>
          </mxGeometry>
        </mxCell>
        <mxCell id="1pIJbLg3n0uSN6tYHmuE-144" value="Controleur" style="swimlane;fontStyle=1;align=center;verticalAlign=top;childLayout=stackLayout;horizontal=1;startSize=26;horizontalStack=0;resizeParent=1;resizeParentMax=0;resizeLast=0;collapsible=1;marginBottom=0;whiteSpace=wrap;html=1;" parent="1" vertex="1">
          <mxGeometry x="130" y="590" width="160" height="34" as="geometry" />
        </mxCell>
        <mxCell id="1pIJbLg3n0uSN6tYHmuE-146" value="" style="line;strokeWidth=1;fillColor=none;align=left;verticalAlign=middle;spacingTop=-1;spacingLeft=3;spacingRight=3;rotatable=0;labelPosition=right;points=[];portConstraint=eastwest;strokeColor=inherit;" parent="1pIJbLg3n0uSN6tYHmuE-144" vertex="1">
          <mxGeometry y="26" width="160" height="8" as="geometry" />
        </mxCell>
        <mxCell id="1pIJbLg3n0uSN6tYHmuE-148" value="- controleur 1" style="text;html=1;align=center;verticalAlign=middle;resizable=0;points=[];autosize=1;strokeColor=none;fillColor=none;" parent="1" vertex="1">
          <mxGeometry x="210" y="100" width="90" height="30" as="geometry" />
        </mxCell>
        <mxCell id="1pIJbLg3n0uSN6tYHmuE-150" value="- IHM 1" style="text;html=1;align=center;verticalAlign=middle;resizable=0;points=[];autosize=1;strokeColor=none;fillColor=none;" parent="1" vertex="1">
          <mxGeometry x="225" y="510" width="60" height="30" as="geometry" />
        </mxCell>
        <mxCell id="1pIJbLg3n0uSN6tYHmuE-153" value="- map 1" style="text;html=1;align=center;verticalAlign=middle;resizable=0;points=[];autosize=1;strokeColor=none;fillColor=none;" parent="1" vertex="1">
          <mxGeometry x="413" y="580" width="60" height="30" as="geometry" />
        </mxCell>
        <mxCell id="1pIJbLg3n0uSN6tYHmuE-155" value="- mapObjects 1.*" style="text;html=1;align=center;verticalAlign=middle;resizable=0;points=[];autosize=1;strokeColor=none;fillColor=none;" parent="1" vertex="1">
          <mxGeometry x="730" y="710" width="110" height="30" as="geometry" />
        </mxCell>
        <mxCell id="erENeKZ2Nr3gwHFPNP4--6" style="edgeStyle=orthogonalEdgeStyle;rounded=0;orthogonalLoop=1;jettySize=auto;html=1;endArrow=block;endFill=0;" parent="1" source="erENeKZ2Nr3gwHFPNP4--1" target="1pIJbLg3n0uSN6tYHmuE-39" edge="1">
          <mxGeometry relative="1" as="geometry">
            <Array as="points">
              <mxPoint x="2140" y="913" />
            </Array>
          </mxGeometry>
        </mxCell>
        <mxCell id="erENeKZ2Nr3gwHFPNP4--1" value="Monkey" style="swimlane;fontStyle=1;align=center;verticalAlign=top;childLayout=stackLayout;horizontal=1;startSize=26;horizontalStack=0;resizeParent=1;resizeParentMax=0;resizeLast=0;collapsible=1;marginBottom=0;whiteSpace=wrap;html=1;" parent="1" vertex="1">
          <mxGeometry x="2060" y="928" width="160" height="86" as="geometry" />
        </mxCell>
        <mxCell id="1knqwKVj045Zjyp5p2bE-44" value="# MAX_HUNGER = 3: int" style="text;strokeColor=none;fillColor=none;align=left;verticalAlign=top;spacingLeft=4;spacingRight=4;overflow=hidden;rotatable=0;points=[[0,0.5],[1,0.5]];portConstraint=eastwest;whiteSpace=wrap;html=1;" vertex="1" parent="erENeKZ2Nr3gwHFPNP4--1">
          <mxGeometry y="26" width="160" height="26" as="geometry" />
        </mxCell>
        <mxCell id="erENeKZ2Nr3gwHFPNP4--2" value="" style="line;strokeWidth=1;fillColor=none;align=left;verticalAlign=middle;spacingTop=-1;spacingLeft=3;spacingRight=3;rotatable=0;labelPosition=right;points=[];portConstraint=eastwest;strokeColor=inherit;" parent="erENeKZ2Nr3gwHFPNP4--1" vertex="1">
          <mxGeometry y="52" width="160" height="8" as="geometry" />
        </mxCell>
        <mxCell id="1knqwKVj045Zjyp5p2bE-45" value="+ getMaxHunger(): int" style="text;strokeColor=none;fillColor=none;align=left;verticalAlign=top;spacingLeft=4;spacingRight=4;overflow=hidden;rotatable=0;points=[[0,0.5],[1,0.5]];portConstraint=eastwest;whiteSpace=wrap;html=1;" vertex="1" parent="erENeKZ2Nr3gwHFPNP4--1">
          <mxGeometry y="60" width="160" height="26" as="geometry" />
        </mxCell>
        <mxCell id="erENeKZ2Nr3gwHFPNP4--5" style="edgeStyle=orthogonalEdgeStyle;rounded=0;orthogonalLoop=1;jettySize=auto;html=1;endArrow=block;endFill=0;" parent="1" source="erENeKZ2Nr3gwHFPNP4--3" target="1pIJbLg3n0uSN6tYHmuE-39" edge="1">
          <mxGeometry relative="1" as="geometry">
            <Array as="points">
              <mxPoint x="2150" y="880" />
            </Array>
          </mxGeometry>
        </mxCell>
        <mxCell id="erENeKZ2Nr3gwHFPNP4--3" value="Squirrel" style="swimlane;fontStyle=1;align=center;verticalAlign=top;childLayout=stackLayout;horizontal=1;startSize=26;horizontalStack=0;resizeParent=1;resizeParentMax=0;resizeLast=0;collapsible=1;marginBottom=0;whiteSpace=wrap;html=1;" parent="1" vertex="1">
          <mxGeometry x="2070" y="800" width="160" height="86" as="geometry" />
        </mxCell>
        <mxCell id="1pIJbLg3n0uSN6tYHmuE-129" value="# MAX_HUNGER = 5: int" style="text;strokeColor=none;fillColor=none;align=left;verticalAlign=top;spacingLeft=4;spacingRight=4;overflow=hidden;rotatable=0;points=[[0,0.5],[1,0.5]];portConstraint=eastwest;whiteSpace=wrap;html=1;" parent="erENeKZ2Nr3gwHFPNP4--3" vertex="1">
          <mxGeometry y="26" width="160" height="26" as="geometry" />
        </mxCell>
        <mxCell id="1knqwKVj045Zjyp5p2bE-46" value="+ getMaxHunger(): int" style="text;strokeColor=none;fillColor=none;align=left;verticalAlign=top;spacingLeft=4;spacingRight=4;overflow=hidden;rotatable=0;points=[[0,0.5],[1,0.5]];portConstraint=eastwest;whiteSpace=wrap;html=1;" vertex="1" parent="erENeKZ2Nr3gwHFPNP4--3">
          <mxGeometry y="52" width="160" height="26" as="geometry" />
        </mxCell>
        <mxCell id="erENeKZ2Nr3gwHFPNP4--4" value="" style="line;strokeWidth=1;fillColor=none;align=left;verticalAlign=middle;spacingTop=-1;spacingLeft=3;spacingRight=3;rotatable=0;labelPosition=right;points=[];portConstraint=eastwest;strokeColor=inherit;" parent="erENeKZ2Nr3gwHFPNP4--3" vertex="1">
          <mxGeometry y="78" width="160" height="8" as="geometry" />
        </mxCell>
        <mxCell id="oRjJ93pPWEKm5RYMZn9i-181" value="" style="whiteSpace=wrap;html=1;movable=1;resizable=1;rotatable=1;deletable=1;editable=1;locked=0;connectable=1;" parent="1" vertex="1">
          <mxGeometry x="96" y="1440" width="2290" height="570" as="geometry" />
        </mxCell>
        <mxCell id="oRjJ93pPWEKm5RYMZn9i-182" style="edgeStyle=orthogonalEdgeStyle;rounded=0;orthogonalLoop=1;jettySize=auto;html=1;endArrow=open;endFill=0;" parent="1" source="oRjJ93pPWEKm5RYMZn9i-183" target="oRjJ93pPWEKm5RYMZn9i-222" edge="1">
          <mxGeometry relative="1" as="geometry">
            <Array as="points">
              <mxPoint x="431" y="1598" />
            </Array>
          </mxGeometry>
        </mxCell>
        <mxCell id="oRjJ93pPWEKm5RYMZn9i-183" value="Map" style="swimlane;fontStyle=1;align=center;verticalAlign=top;childLayout=stackLayout;horizontal=1;startSize=26;horizontalStack=0;resizeParent=1;resizeParentMax=0;resizeLast=0;collapsible=1;marginBottom=0;whiteSpace=wrap;html=1;" parent="1" vertex="1">
          <mxGeometry x="111" y="1450" width="160" height="296" as="geometry" />
        </mxCell>
        <mxCell id="oRjJ93pPWEKm5RYMZn9i-184" value="???" style="text;strokeColor=none;fillColor=none;align=left;verticalAlign=top;spacingLeft=4;spacingRight=4;overflow=hidden;rotatable=0;points=[[0,0.5],[1,0.5]];portConstraint=eastwest;whiteSpace=wrap;html=1;" parent="oRjJ93pPWEKm5RYMZn9i-183" vertex="1">
          <mxGeometry y="26" width="160" height="26" as="geometry" />
        </mxCell>
        <mxCell id="oRjJ93pPWEKm5RYMZn9i-185" value="" style="line;strokeWidth=1;fillColor=none;align=left;verticalAlign=middle;spacingTop=-1;spacingLeft=3;spacingRight=3;rotatable=0;labelPosition=right;points=[];portConstraint=eastwest;strokeColor=inherit;" parent="oRjJ93pPWEKm5RYMZn9i-183" vertex="1">
          <mxGeometry y="52" width="160" height="8" as="geometry" />
        </mxCell>
        <mxCell id="oRjJ93pPWEKm5RYMZn9i-186" value="+ Map()" style="text;strokeColor=none;fillColor=none;align=left;verticalAlign=top;spacingLeft=4;spacingRight=4;overflow=hidden;rotatable=0;points=[[0,0.5],[1,0.5]];portConstraint=eastwest;whiteSpace=wrap;html=1;" parent="oRjJ93pPWEKm5RYMZn9i-183" vertex="1">
          <mxGeometry y="60" width="160" height="26" as="geometry" />
        </mxCell>
        <mxCell id="oRjJ93pPWEKm5RYMZn9i-187" value="+ LoadMap (String biome)" style="text;strokeColor=none;fillColor=none;align=left;verticalAlign=top;spacingLeft=4;spacingRight=4;overflow=hidden;rotatable=0;points=[[0,0.5],[1,0.5]];portConstraint=eastwest;whiteSpace=wrap;html=1;" parent="oRjJ93pPWEKm5RYMZn9i-183" vertex="1">
          <mxGeometry y="86" width="160" height="26" as="geometry" />
        </mxCell>
        <mxCell id="oRjJ93pPWEKm5RYMZn9i-188" value="+ GenerateMap (String biome)" style="text;strokeColor=none;fillColor=none;align=left;verticalAlign=top;spacingLeft=4;spacingRight=4;overflow=hidden;rotatable=0;points=[[0,0.5],[1,0.5]];portConstraint=eastwest;whiteSpace=wrap;html=1;" parent="oRjJ93pPWEKm5RYMZn9i-183" vertex="1">
          <mxGeometry y="112" width="160" height="38" as="geometry" />
        </mxCell>
        <mxCell id="oRjJ93pPWEKm5RYMZn9i-189" value="- NPCturn()" style="text;strokeColor=none;fillColor=none;align=left;verticalAlign=top;spacingLeft=4;spacingRight=4;overflow=hidden;rotatable=0;points=[[0,0.5],[1,0.5]];portConstraint=eastwest;whiteSpace=wrap;html=1;" parent="oRjJ93pPWEKm5RYMZn9i-183" vertex="1">
          <mxGeometry y="150" width="160" height="30" as="geometry" />
        </mxCell>
        <mxCell id="oRjJ93pPWEKm5RYMZn9i-190" value="+ MovePlayer(String direction)" style="text;strokeColor=none;fillColor=none;align=left;verticalAlign=top;spacingLeft=4;spacingRight=4;overflow=hidden;rotatable=0;points=[[0,0.5],[1,0.5]];portConstraint=eastwest;whiteSpace=wrap;html=1;" parent="oRjJ93pPWEKm5RYMZn9i-183" vertex="1">
          <mxGeometry y="180" width="160" height="38" as="geometry" />
        </mxCell>
        <mxCell id="oRjJ93pPWEKm5RYMZn9i-191" value="+ PlayerFight()" style="text;strokeColor=none;fillColor=none;align=left;verticalAlign=top;spacingLeft=4;spacingRight=4;overflow=hidden;rotatable=0;points=[[0,0.5],[1,0.5]];portConstraint=eastwest;whiteSpace=wrap;html=1;" parent="oRjJ93pPWEKm5RYMZn9i-183" vertex="1">
          <mxGeometry y="218" width="160" height="26" as="geometry" />
        </mxCell>
        <mxCell id="oRjJ93pPWEKm5RYMZn9i-192" value="+ PlayerInteract()" style="text;strokeColor=none;fillColor=none;align=left;verticalAlign=top;spacingLeft=4;spacingRight=4;overflow=hidden;rotatable=0;points=[[0,0.5],[1,0.5]];portConstraint=eastwest;whiteSpace=wrap;html=1;" parent="oRjJ93pPWEKm5RYMZn9i-183" vertex="1">
          <mxGeometry y="244" width="160" height="26" as="geometry" />
        </mxCell>
        <mxCell id="oRjJ93pPWEKm5RYMZn9i-193" value="+ GetMapRepresentation()" style="text;strokeColor=none;fillColor=none;align=left;verticalAlign=top;spacingLeft=4;spacingRight=4;overflow=hidden;rotatable=0;points=[[0,0.5],[1,0.5]];portConstraint=eastwest;whiteSpace=wrap;html=1;" parent="oRjJ93pPWEKm5RYMZn9i-183" vertex="1">
          <mxGeometry y="270" width="160" height="26" as="geometry" />
        </mxCell>
        <mxCell id="oRjJ93pPWEKm5RYMZn9i-194" style="edgeStyle=orthogonalEdgeStyle;rounded=0;orthogonalLoop=1;jettySize=auto;html=1;dashed=1;endArrow=block;endFill=0;" parent="1" source="oRjJ93pPWEKm5RYMZn9i-202" target="oRjJ93pPWEKm5RYMZn9i-244" edge="1">
          <mxGeometry relative="1" as="geometry" />
        </mxCell>
        <mxCell id="oRjJ93pPWEKm5RYMZn9i-196" style="edgeStyle=orthogonalEdgeStyle;rounded=0;orthogonalLoop=1;jettySize=auto;html=1;endArrow=open;endFill=0;dashed=1;" parent="1" source="oRjJ93pPWEKm5RYMZn9i-202" target="oRjJ93pPWEKm5RYMZn9i-211" edge="1">
          <mxGeometry relative="1" as="geometry">
            <Array as="points">
              <mxPoint x="1421" y="1977" />
            </Array>
          </mxGeometry>
        </mxCell>
        <mxCell id="oRjJ93pPWEKm5RYMZn9i-197" style="edgeStyle=orthogonalEdgeStyle;rounded=0;orthogonalLoop=1;jettySize=auto;html=1;endArrow=open;endFill=0;dashed=1;" parent="1" source="oRjJ93pPWEKm5RYMZn9i-202" target="oRjJ93pPWEKm5RYMZn9i-214" edge="1">
          <mxGeometry relative="1" as="geometry">
            <Array as="points">
              <mxPoint x="1241" y="1977" />
            </Array>
          </mxGeometry>
        </mxCell>
        <mxCell id="oRjJ93pPWEKm5RYMZn9i-198" style="edgeStyle=orthogonalEdgeStyle;rounded=0;orthogonalLoop=1;jettySize=auto;html=1;endArrow=open;endFill=0;dashed=1;" parent="1" source="oRjJ93pPWEKm5RYMZn9i-202" target="oRjJ93pPWEKm5RYMZn9i-217" edge="1">
          <mxGeometry relative="1" as="geometry">
            <Array as="points">
              <mxPoint x="1051" y="1977" />
            </Array>
          </mxGeometry>
        </mxCell>
        <mxCell id="oRjJ93pPWEKm5RYMZn9i-199" style="edgeStyle=orthogonalEdgeStyle;rounded=0;orthogonalLoop=1;jettySize=auto;html=1;endArrow=open;endFill=0;dashed=1;" parent="1" source="oRjJ93pPWEKm5RYMZn9i-202" target="oRjJ93pPWEKm5RYMZn9i-275" edge="1">
          <mxGeometry relative="1" as="geometry">
            <Array as="points">
              <mxPoint x="851" y="1977" />
            </Array>
          </mxGeometry>
        </mxCell>
        <mxCell id="oRjJ93pPWEKm5RYMZn9i-200" style="edgeStyle=orthogonalEdgeStyle;rounded=0;orthogonalLoop=1;jettySize=auto;html=1;endArrow=open;endFill=0;dashed=1;" parent="1" source="oRjJ93pPWEKm5RYMZn9i-202" target="oRjJ93pPWEKm5RYMZn9i-220" edge="1">
          <mxGeometry relative="1" as="geometry">
            <Array as="points">
              <mxPoint x="681" y="1977" />
            </Array>
          </mxGeometry>
        </mxCell>
        <mxCell id="oRjJ93pPWEKm5RYMZn9i-201" style="edgeStyle=orthogonalEdgeStyle;rounded=0;orthogonalLoop=1;jettySize=auto;html=1;endArrow=open;endFill=0;dashed=1;" parent="1" source="oRjJ93pPWEKm5RYMZn9i-202" target="oRjJ93pPWEKm5RYMZn9i-266" edge="1">
          <mxGeometry relative="1" as="geometry">
            <Array as="points">
              <mxPoint x="1741" y="1987" />
            </Array>
          </mxGeometry>
        </mxCell>
        <mxCell id="oRjJ93pPWEKm5RYMZn9i-317" style="edgeStyle=orthogonalEdgeStyle;rounded=0;orthogonalLoop=1;jettySize=auto;html=1;endArrow=open;endFill=0;dashed=1;" parent="1" source="oRjJ93pPWEKm5RYMZn9i-202" target="oRjJ93pPWEKm5RYMZn9i-295" edge="1">
          <mxGeometry relative="1" as="geometry">
            <Array as="points">
              <mxPoint x="2046" y="1987" />
            </Array>
          </mxGeometry>
        </mxCell>
        <mxCell id="oRjJ93pPWEKm5RYMZn9i-202" value="JungleFactory" style="swimlane;fontStyle=1;align=center;verticalAlign=top;childLayout=stackLayout;horizontal=1;startSize=26;horizontalStack=0;resizeParent=1;resizeParentMax=0;resizeLast=0;collapsible=1;marginBottom=0;whiteSpace=wrap;html=1;" parent="1" vertex="1">
          <mxGeometry x="2136" y="1970" width="160" height="34" as="geometry" />
        </mxCell>
        <mxCell id="oRjJ93pPWEKm5RYMZn9i-203" value="" style="line;strokeWidth=1;fillColor=none;align=left;verticalAlign=middle;spacingTop=-1;spacingLeft=3;spacingRight=3;rotatable=0;labelPosition=right;points=[];portConstraint=eastwest;strokeColor=inherit;" parent="oRjJ93pPWEKm5RYMZn9i-202" vertex="1">
          <mxGeometry y="26" width="160" height="8" as="geometry" />
        </mxCell>
        <mxCell id="oRjJ93pPWEKm5RYMZn9i-204" style="edgeStyle=orthogonalEdgeStyle;rounded=0;orthogonalLoop=1;jettySize=auto;html=1;endArrow=block;endFill=0;" parent="1" source="oRjJ93pPWEKm5RYMZn9i-206" target="oRjJ93pPWEKm5RYMZn9i-222" edge="1">
          <mxGeometry relative="1" as="geometry">
            <Array as="points">
              <mxPoint x="756" y="1810" />
              <mxPoint x="756" y="1810" />
            </Array>
          </mxGeometry>
        </mxCell>
        <mxCell id="oRjJ93pPWEKm5RYMZn9i-205" style="edgeStyle=orthogonalEdgeStyle;rounded=0;orthogonalLoop=1;jettySize=auto;html=1;endArrow=open;endFill=0;" parent="1" source="oRjJ93pPWEKm5RYMZn9i-206" target="oRjJ93pPWEKm5RYMZn9i-251" edge="1">
          <mxGeometry relative="1" as="geometry">
            <Array as="points">
              <mxPoint x="1521" y="1630" />
              <mxPoint x="1521" y="1630" />
            </Array>
          </mxGeometry>
        </mxCell>
        <mxCell id="oRjJ93pPWEKm5RYMZn9i-206" value="&amp;lt;&amp;lt;Abstract&amp;gt;&amp;gt;&amp;nbsp;Animal" style="swimlane;fontStyle=1;align=center;verticalAlign=top;childLayout=stackLayout;horizontal=1;startSize=26;horizontalStack=0;resizeParent=1;resizeParentMax=0;resizeLast=0;collapsible=1;marginBottom=0;whiteSpace=wrap;html=1;" parent="1" vertex="1">
          <mxGeometry x="1481" y="1730" width="160" height="94" as="geometry" />
        </mxCell>
        <mxCell id="oRjJ93pPWEKm5RYMZn9i-208" value="- current_hunger: int" style="text;strokeColor=none;fillColor=none;align=left;verticalAlign=top;spacingLeft=4;spacingRight=4;overflow=hidden;rotatable=0;points=[[0,0.5],[1,0.5]];portConstraint=eastwest;whiteSpace=wrap;html=1;" parent="oRjJ93pPWEKm5RYMZn9i-206" vertex="1">
          <mxGeometry y="26" width="160" height="26" as="geometry" />
        </mxCell>
        <mxCell id="oRjJ93pPWEKm5RYMZn9i-209" value="" style="line;strokeWidth=1;fillColor=none;align=left;verticalAlign=middle;spacingTop=-1;spacingLeft=3;spacingRight=3;rotatable=0;labelPosition=right;points=[];portConstraint=eastwest;strokeColor=inherit;" parent="oRjJ93pPWEKm5RYMZn9i-206" vertex="1">
          <mxGeometry y="52" width="160" height="8" as="geometry" />
        </mxCell>
        <mxCell id="1knqwKVj045Zjyp5p2bE-38" value="+ &amp;lt;&amp;lt;abstract&amp;gt;&amp;gt; shroomBehavious()" style="text;strokeColor=none;fillColor=none;align=left;verticalAlign=top;spacingLeft=4;spacingRight=4;overflow=hidden;rotatable=0;points=[[0,0.5],[1,0.5]];portConstraint=eastwest;whiteSpace=wrap;html=1;" vertex="1" parent="oRjJ93pPWEKm5RYMZn9i-206">
          <mxGeometry y="60" width="160" height="34" as="geometry" />
        </mxCell>
        <mxCell id="oRjJ93pPWEKm5RYMZn9i-210" style="edgeStyle=orthogonalEdgeStyle;rounded=0;orthogonalLoop=1;jettySize=auto;html=1;endArrow=block;endFill=0;" parent="1" source="oRjJ93pPWEKm5RYMZn9i-211" target="oRjJ93pPWEKm5RYMZn9i-222" edge="1">
          <mxGeometry relative="1" as="geometry">
            <Array as="points">
              <mxPoint x="1381" y="1810" />
            </Array>
          </mxGeometry>
        </mxCell>
        <mxCell id="oRjJ93pPWEKm5RYMZn9i-211" value="&amp;lt;&amp;lt;Abstract&amp;gt;&amp;gt;&amp;nbsp;Tree" style="swimlane;fontStyle=1;align=center;verticalAlign=top;childLayout=stackLayout;horizontal=1;startSize=26;horizontalStack=0;resizeParent=1;resizeParentMax=0;resizeLast=0;collapsible=1;marginBottom=0;whiteSpace=wrap;html=1;" parent="1" vertex="1">
          <mxGeometry x="1301" y="1764" width="160" height="34" as="geometry" />
        </mxCell>
        <mxCell id="oRjJ93pPWEKm5RYMZn9i-212" value="" style="line;strokeWidth=1;fillColor=none;align=left;verticalAlign=middle;spacingTop=-1;spacingLeft=3;spacingRight=3;rotatable=0;labelPosition=right;points=[];portConstraint=eastwest;strokeColor=inherit;" parent="oRjJ93pPWEKm5RYMZn9i-211" vertex="1">
          <mxGeometry y="26" width="160" height="8" as="geometry" />
        </mxCell>
        <mxCell id="oRjJ93pPWEKm5RYMZn9i-213" style="edgeStyle=orthogonalEdgeStyle;rounded=0;orthogonalLoop=1;jettySize=auto;html=1;endArrow=block;endFill=0;" parent="1" source="oRjJ93pPWEKm5RYMZn9i-214" target="oRjJ93pPWEKm5RYMZn9i-222" edge="1">
          <mxGeometry relative="1" as="geometry">
            <Array as="points">
              <mxPoint x="1199" y="1810" />
            </Array>
          </mxGeometry>
        </mxCell>
        <mxCell id="oRjJ93pPWEKm5RYMZn9i-214" value="&amp;lt;&amp;lt;Abstract&amp;gt;&amp;gt;&amp;nbsp;Decoration" style="swimlane;fontStyle=1;align=center;verticalAlign=top;childLayout=stackLayout;horizontal=1;startSize=26;horizontalStack=0;resizeParent=1;resizeParentMax=0;resizeLast=0;collapsible=1;marginBottom=0;whiteSpace=wrap;html=1;" parent="1" vertex="1">
          <mxGeometry x="1118.5" y="1764" width="160" height="34" as="geometry">
            <mxRectangle x="1900" y="751" width="100" height="30" as="alternateBounds" />
          </mxGeometry>
        </mxCell>
        <mxCell id="oRjJ93pPWEKm5RYMZn9i-215" value="" style="line;strokeWidth=1;fillColor=none;align=left;verticalAlign=middle;spacingTop=-1;spacingLeft=3;spacingRight=3;rotatable=0;labelPosition=right;points=[];portConstraint=eastwest;strokeColor=inherit;" parent="oRjJ93pPWEKm5RYMZn9i-214" vertex="1">
          <mxGeometry y="26" width="160" height="8" as="geometry" />
        </mxCell>
        <mxCell id="oRjJ93pPWEKm5RYMZn9i-216" style="edgeStyle=orthogonalEdgeStyle;rounded=0;orthogonalLoop=1;jettySize=auto;html=1;endArrow=block;endFill=0;" parent="1" source="oRjJ93pPWEKm5RYMZn9i-217" target="oRjJ93pPWEKm5RYMZn9i-222" edge="1">
          <mxGeometry relative="1" as="geometry">
            <Array as="points">
              <mxPoint x="1011" y="1810" />
            </Array>
          </mxGeometry>
        </mxCell>
        <mxCell id="oRjJ93pPWEKm5RYMZn9i-217" value="&amp;lt;&amp;lt;Abstract&amp;gt;&amp;gt;&amp;nbsp;Fruit" style="swimlane;fontStyle=1;align=center;verticalAlign=top;childLayout=stackLayout;horizontal=1;startSize=26;horizontalStack=0;resizeParent=1;resizeParentMax=0;resizeLast=0;collapsible=1;marginBottom=0;whiteSpace=wrap;html=1;" parent="1" vertex="1">
          <mxGeometry x="933.5" y="1764" width="160" height="34" as="geometry" />
        </mxCell>
        <mxCell id="oRjJ93pPWEKm5RYMZn9i-218" value="" style="line;strokeWidth=1;fillColor=none;align=left;verticalAlign=middle;spacingTop=-1;spacingLeft=3;spacingRight=3;rotatable=0;labelPosition=right;points=[];portConstraint=eastwest;strokeColor=inherit;" parent="oRjJ93pPWEKm5RYMZn9i-217" vertex="1">
          <mxGeometry y="26" width="160" height="8" as="geometry" />
        </mxCell>
        <mxCell id="oRjJ93pPWEKm5RYMZn9i-219" style="edgeStyle=orthogonalEdgeStyle;rounded=0;orthogonalLoop=1;jettySize=auto;html=1;endArrow=block;endFill=0;" parent="1" source="oRjJ93pPWEKm5RYMZn9i-220" target="oRjJ93pPWEKm5RYMZn9i-222" edge="1">
          <mxGeometry relative="1" as="geometry">
            <Array as="points">
              <mxPoint x="631" y="1810" />
            </Array>
          </mxGeometry>
        </mxCell>
        <mxCell id="oRjJ93pPWEKm5RYMZn9i-220" value="&amp;lt;&amp;lt;Abstract&amp;gt;&amp;gt; EmptySpace" style="swimlane;fontStyle=1;align=center;verticalAlign=top;childLayout=stackLayout;horizontal=1;startSize=26;horizontalStack=0;resizeParent=1;resizeParentMax=0;resizeLast=0;collapsible=1;marginBottom=0;whiteSpace=wrap;html=1;" parent="1" vertex="1">
          <mxGeometry x="551" y="1764" width="160" height="34" as="geometry" />
        </mxCell>
        <mxCell id="oRjJ93pPWEKm5RYMZn9i-221" value="" style="line;strokeWidth=1;fillColor=none;align=left;verticalAlign=middle;spacingTop=-1;spacingLeft=3;spacingRight=3;rotatable=0;labelPosition=right;points=[];portConstraint=eastwest;strokeColor=inherit;" parent="oRjJ93pPWEKm5RYMZn9i-220" vertex="1">
          <mxGeometry y="26" width="160" height="8" as="geometry" />
        </mxCell>
        <mxCell id="oRjJ93pPWEKm5RYMZn9i-222" value="&amp;lt;&amp;lt;Abstract&amp;gt;&amp;gt; MapObject" style="swimlane;fontStyle=1;align=center;verticalAlign=top;childLayout=stackLayout;horizontal=1;startSize=26;horizontalStack=0;resizeParent=1;resizeParentMax=0;resizeLast=0;collapsible=1;marginBottom=0;whiteSpace=wrap;html=1;" parent="1" vertex="1">
          <mxGeometry x="341" y="1680" width="160" height="228" as="geometry" />
        </mxCell>
        <mxCell id="oRjJ93pPWEKm5RYMZn9i-223" value="- color: String" style="text;strokeColor=none;fillColor=none;align=left;verticalAlign=top;spacingLeft=4;spacingRight=4;overflow=hidden;rotatable=0;points=[[0,0.5],[1,0.5]];portConstraint=eastwest;whiteSpace=wrap;html=1;" parent="oRjJ93pPWEKm5RYMZn9i-222" vertex="1">
          <mxGeometry y="26" width="160" height="26" as="geometry" />
        </mxCell>
        <mxCell id="oRjJ93pPWEKm5RYMZn9i-224" value="- positionX: int" style="text;strokeColor=none;fillColor=none;align=left;verticalAlign=top;spacingLeft=4;spacingRight=4;overflow=hidden;rotatable=0;points=[[0,0.5],[1,0.5]];portConstraint=eastwest;whiteSpace=wrap;html=1;" parent="oRjJ93pPWEKm5RYMZn9i-222" vertex="1">
          <mxGeometry y="52" width="160" height="26" as="geometry" />
        </mxCell>
        <mxCell id="oRjJ93pPWEKm5RYMZn9i-225" value="- positionY: int" style="text;strokeColor=none;fillColor=none;align=left;verticalAlign=top;spacingLeft=4;spacingRight=4;overflow=hidden;rotatable=0;points=[[0,0.5],[1,0.5]];portConstraint=eastwest;whiteSpace=wrap;html=1;" parent="oRjJ93pPWEKm5RYMZn9i-222" vertex="1">
          <mxGeometry y="78" width="160" height="26" as="geometry" />
        </mxCell>
        <mxCell id="oRjJ93pPWEKm5RYMZn9i-226" value="" style="line;strokeWidth=1;fillColor=none;align=left;verticalAlign=middle;spacingTop=-1;spacingLeft=3;spacingRight=3;rotatable=0;labelPosition=right;points=[];portConstraint=eastwest;strokeColor=inherit;" parent="oRjJ93pPWEKm5RYMZn9i-222" vertex="1">
          <mxGeometry y="104" width="160" height="8" as="geometry" />
        </mxCell>
        <mxCell id="oRjJ93pPWEKm5RYMZn9i-227" value="+ getRepresentation(): String" style="text;strokeColor=none;fillColor=none;align=left;verticalAlign=top;spacingLeft=4;spacingRight=4;overflow=hidden;rotatable=0;points=[[0,0.5],[1,0.5]];portConstraint=eastwest;whiteSpace=wrap;html=1;" parent="oRjJ93pPWEKm5RYMZn9i-222" vertex="1">
          <mxGeometry y="112" width="160" height="38" as="geometry" />
        </mxCell>
        <mxCell id="oRjJ93pPWEKm5RYMZn9i-228" value="+ getPosX(): int" style="text;strokeColor=none;fillColor=none;align=left;verticalAlign=top;spacingLeft=4;spacingRight=4;overflow=hidden;rotatable=0;points=[[0,0.5],[1,0.5]];portConstraint=eastwest;whiteSpace=wrap;html=1;" parent="oRjJ93pPWEKm5RYMZn9i-222" vertex="1">
          <mxGeometry y="150" width="160" height="26" as="geometry" />
        </mxCell>
        <mxCell id="oRjJ93pPWEKm5RYMZn9i-229" value="+ getPosY(): int" style="text;strokeColor=none;fillColor=none;align=left;verticalAlign=top;spacingLeft=4;spacingRight=4;overflow=hidden;rotatable=0;points=[[0,0.5],[1,0.5]];portConstraint=eastwest;whiteSpace=wrap;html=1;" parent="oRjJ93pPWEKm5RYMZn9i-222" vertex="1">
          <mxGeometry y="176" width="160" height="26" as="geometry" />
        </mxCell>
        <mxCell id="oRjJ93pPWEKm5RYMZn9i-230" value="+ Play()" style="text;strokeColor=none;fillColor=none;align=left;verticalAlign=top;spacingLeft=4;spacingRight=4;overflow=hidden;rotatable=0;points=[[0,0.5],[1,0.5]];portConstraint=eastwest;whiteSpace=wrap;html=1;" parent="oRjJ93pPWEKm5RYMZn9i-222" vertex="1">
          <mxGeometry y="202" width="160" height="26" as="geometry" />
        </mxCell>
        <mxCell id="oRjJ93pPWEKm5RYMZn9i-231" style="edgeStyle=orthogonalEdgeStyle;rounded=0;orthogonalLoop=1;jettySize=auto;html=1;endArrow=block;endFill=0;" parent="1" source="oRjJ93pPWEKm5RYMZn9i-232" target="oRjJ93pPWEKm5RYMZn9i-222" edge="1">
          <mxGeometry relative="1" as="geometry">
            <Array as="points">
              <mxPoint x="821" y="1810" />
            </Array>
          </mxGeometry>
        </mxCell>
        <mxCell id="oRjJ93pPWEKm5RYMZn9i-232" value="&amp;lt;&amp;lt;Abstract&amp;gt;&amp;gt;&amp;nbsp;Mushroom" style="swimlane;fontStyle=1;align=center;verticalAlign=top;childLayout=stackLayout;horizontal=1;startSize=26;horizontalStack=0;resizeParent=1;resizeParentMax=0;resizeLast=0;collapsible=1;marginBottom=0;whiteSpace=wrap;html=1;" parent="1" vertex="1">
          <mxGeometry x="741" y="1740" width="160" height="60" as="geometry" />
        </mxCell>
        <mxCell id="oRjJ93pPWEKm5RYMZn9i-233" value="" style="line;strokeWidth=1;fillColor=none;align=left;verticalAlign=middle;spacingTop=-1;spacingLeft=3;spacingRight=3;rotatable=0;labelPosition=right;points=[];portConstraint=eastwest;strokeColor=inherit;" parent="oRjJ93pPWEKm5RYMZn9i-232" vertex="1">
          <mxGeometry y="26" width="160" height="8" as="geometry" />
        </mxCell>
        <mxCell id="oRjJ93pPWEKm5RYMZn9i-279" value="+ generateShroom()" style="text;strokeColor=none;fillColor=none;align=left;verticalAlign=top;spacingLeft=4;spacingRight=4;overflow=hidden;rotatable=0;points=[[0,0.5],[1,0.5]];portConstraint=eastwest;whiteSpace=wrap;html=1;" parent="oRjJ93pPWEKm5RYMZn9i-232" vertex="1">
          <mxGeometry y="34" width="160" height="26" as="geometry" />
        </mxCell>
        <mxCell id="oRjJ93pPWEKm5RYMZn9i-234" style="edgeStyle=orthogonalEdgeStyle;rounded=0;orthogonalLoop=1;jettySize=auto;html=1;endArrow=block;endFill=0;dashed=1;" parent="1" source="oRjJ93pPWEKm5RYMZn9i-242" target="oRjJ93pPWEKm5RYMZn9i-244" edge="1">
          <mxGeometry relative="1" as="geometry" />
        </mxCell>
        <mxCell id="oRjJ93pPWEKm5RYMZn9i-236" style="edgeStyle=orthogonalEdgeStyle;rounded=0;orthogonalLoop=1;jettySize=auto;html=1;endArrow=open;endFill=0;dashed=1;" parent="1" source="oRjJ93pPWEKm5RYMZn9i-242" target="oRjJ93pPWEKm5RYMZn9i-211" edge="1">
          <mxGeometry relative="1" as="geometry" />
        </mxCell>
        <mxCell id="oRjJ93pPWEKm5RYMZn9i-237" style="edgeStyle=orthogonalEdgeStyle;rounded=0;orthogonalLoop=1;jettySize=auto;html=1;endArrow=open;endFill=0;dashed=1;" parent="1" source="oRjJ93pPWEKm5RYMZn9i-242" target="oRjJ93pPWEKm5RYMZn9i-214" edge="1">
          <mxGeometry relative="1" as="geometry" />
        </mxCell>
        <mxCell id="oRjJ93pPWEKm5RYMZn9i-238" style="edgeStyle=orthogonalEdgeStyle;rounded=0;orthogonalLoop=1;jettySize=auto;html=1;endArrow=open;endFill=0;dashed=1;" parent="1" source="oRjJ93pPWEKm5RYMZn9i-242" target="oRjJ93pPWEKm5RYMZn9i-217" edge="1">
          <mxGeometry relative="1" as="geometry" />
        </mxCell>
        <mxCell id="oRjJ93pPWEKm5RYMZn9i-239" style="edgeStyle=orthogonalEdgeStyle;rounded=0;orthogonalLoop=1;jettySize=auto;html=1;endArrow=open;endFill=0;dashed=1;" parent="1" source="oRjJ93pPWEKm5RYMZn9i-242" target="oRjJ93pPWEKm5RYMZn9i-271" edge="1">
          <mxGeometry relative="1" as="geometry" />
        </mxCell>
        <mxCell id="oRjJ93pPWEKm5RYMZn9i-240" style="edgeStyle=orthogonalEdgeStyle;rounded=0;orthogonalLoop=1;jettySize=auto;html=1;endArrow=open;endFill=0;dashed=1;" parent="1" source="oRjJ93pPWEKm5RYMZn9i-242" target="oRjJ93pPWEKm5RYMZn9i-220" edge="1">
          <mxGeometry relative="1" as="geometry" />
        </mxCell>
        <mxCell id="oRjJ93pPWEKm5RYMZn9i-241" style="edgeStyle=orthogonalEdgeStyle;rounded=0;orthogonalLoop=1;jettySize=auto;html=1;endArrow=open;endFill=0;dashed=1;" parent="1" source="oRjJ93pPWEKm5RYMZn9i-242" target="oRjJ93pPWEKm5RYMZn9i-269" edge="1">
          <mxGeometry relative="1" as="geometry">
            <Array as="points">
              <mxPoint x="1751" y="1640" />
            </Array>
          </mxGeometry>
        </mxCell>
        <mxCell id="oRjJ93pPWEKm5RYMZn9i-318" style="edgeStyle=orthogonalEdgeStyle;rounded=0;orthogonalLoop=1;jettySize=auto;html=1;endArrow=open;endFill=0;dashed=1;" parent="1" source="oRjJ93pPWEKm5RYMZn9i-242" target="oRjJ93pPWEKm5RYMZn9i-297" edge="1">
          <mxGeometry relative="1" as="geometry" />
        </mxCell>
        <mxCell id="oRjJ93pPWEKm5RYMZn9i-242" value="ForerstFactory" style="swimlane;fontStyle=1;align=center;verticalAlign=top;childLayout=stackLayout;horizontal=1;startSize=26;horizontalStack=0;resizeParent=1;resizeParentMax=0;resizeLast=0;collapsible=1;marginBottom=0;whiteSpace=wrap;html=1;" parent="1" vertex="1">
          <mxGeometry x="2136" y="1610" width="160" height="34" as="geometry" />
        </mxCell>
        <mxCell id="oRjJ93pPWEKm5RYMZn9i-243" value="" style="line;strokeWidth=1;fillColor=none;align=left;verticalAlign=middle;spacingTop=-1;spacingLeft=3;spacingRight=3;rotatable=0;labelPosition=right;points=[];portConstraint=eastwest;strokeColor=inherit;" parent="oRjJ93pPWEKm5RYMZn9i-242" vertex="1">
          <mxGeometry y="26" width="160" height="8" as="geometry" />
        </mxCell>
        <mxCell id="oRjJ93pPWEKm5RYMZn9i-244" value="&amp;lt;&amp;lt;Interface&amp;gt;&amp;gt; Factory" style="swimlane;fontStyle=1;align=center;verticalAlign=top;childLayout=stackLayout;horizontal=1;startSize=26;horizontalStack=0;resizeParent=1;resizeParentMax=0;resizeLast=0;collapsible=1;marginBottom=0;whiteSpace=wrap;html=1;" parent="1" vertex="1">
          <mxGeometry x="2136" y="1698" width="160" height="250" as="geometry" />
        </mxCell>
        <mxCell id="oRjJ93pPWEKm5RYMZn9i-245" value="" style="line;strokeWidth=1;fillColor=none;align=left;verticalAlign=middle;spacingTop=-1;spacingLeft=3;spacingRight=3;rotatable=0;labelPosition=right;points=[];portConstraint=eastwest;strokeColor=inherit;" parent="oRjJ93pPWEKm5RYMZn9i-244" vertex="1">
          <mxGeometry y="26" width="160" height="8" as="geometry" />
        </mxCell>
        <mxCell id="oRjJ93pPWEKm5RYMZn9i-246" value="+ InstanciateAnimal(): Animal" style="text;strokeColor=none;fillColor=none;align=left;verticalAlign=top;spacingLeft=4;spacingRight=4;overflow=hidden;rotatable=0;points=[[0,0.5],[1,0.5]];portConstraint=eastwest;whiteSpace=wrap;html=1;" parent="oRjJ93pPWEKm5RYMZn9i-244" vertex="1">
          <mxGeometry y="34" width="160" height="36" as="geometry" />
        </mxCell>
        <mxCell id="oRjJ93pPWEKm5RYMZn9i-247" value="+ InstanciateTree(): Tree" style="text;strokeColor=none;fillColor=none;align=left;verticalAlign=top;spacingLeft=4;spacingRight=4;overflow=hidden;rotatable=0;points=[[0,0.5],[1,0.5]];portConstraint=eastwest;whiteSpace=wrap;html=1;" parent="oRjJ93pPWEKm5RYMZn9i-244" vertex="1">
          <mxGeometry y="70" width="160" height="30" as="geometry" />
        </mxCell>
        <mxCell id="oRjJ93pPWEKm5RYMZn9i-248" value="+ InstanciateDecoration(): Decoration" style="text;strokeColor=none;fillColor=none;align=left;verticalAlign=top;spacingLeft=4;spacingRight=4;overflow=hidden;rotatable=0;points=[[0,0.5],[1,0.5]];portConstraint=eastwest;whiteSpace=wrap;html=1;" parent="oRjJ93pPWEKm5RYMZn9i-244" vertex="1">
          <mxGeometry y="100" width="160" height="40" as="geometry" />
        </mxCell>
        <mxCell id="oRjJ93pPWEKm5RYMZn9i-249" value="+ InstanciateFruit(): Fruit" style="text;strokeColor=none;fillColor=none;align=left;verticalAlign=top;spacingLeft=4;spacingRight=4;overflow=hidden;rotatable=0;points=[[0,0.5],[1,0.5]];portConstraint=eastwest;whiteSpace=wrap;html=1;" parent="oRjJ93pPWEKm5RYMZn9i-244" vertex="1">
          <mxGeometry y="140" width="160" height="30" as="geometry" />
        </mxCell>
        <mxCell id="oRjJ93pPWEKm5RYMZn9i-250" value="+ InstanciateEmptyScape(): EmptySpace" style="text;strokeColor=none;fillColor=none;align=left;verticalAlign=top;spacingLeft=4;spacingRight=4;overflow=hidden;rotatable=0;points=[[0,0.5],[1,0.5]];portConstraint=eastwest;whiteSpace=wrap;html=1;" parent="oRjJ93pPWEKm5RYMZn9i-244" vertex="1">
          <mxGeometry y="170" width="160" height="40" as="geometry" />
        </mxCell>
        <mxCell id="1knqwKVj045Zjyp5p2bE-40" value="+ instanciateMushroom(): Fruit" style="text;strokeColor=none;fillColor=none;align=left;verticalAlign=top;spacingLeft=4;spacingRight=4;overflow=hidden;rotatable=0;points=[[0,0.5],[1,0.5]];portConstraint=eastwest;whiteSpace=wrap;html=1;" vertex="1" parent="oRjJ93pPWEKm5RYMZn9i-244">
          <mxGeometry y="210" width="160" height="40" as="geometry" />
        </mxCell>
        <mxCell id="oRjJ93pPWEKm5RYMZn9i-251" value="&amp;lt;&amp;lt;Abstract&amp;gt;&amp;gt; AnimalState" style="swimlane;fontStyle=1;align=center;verticalAlign=top;childLayout=stackLayout;horizontal=1;startSize=26;horizontalStack=0;resizeParent=1;resizeParentMax=0;resizeLast=0;collapsible=1;marginBottom=0;whiteSpace=wrap;html=1;" parent="1" vertex="1">
          <mxGeometry x="1491" y="1540" width="160" height="68" as="geometry" />
        </mxCell>
        <mxCell id="oRjJ93pPWEKm5RYMZn9i-252" value="" style="line;strokeWidth=1;fillColor=none;align=left;verticalAlign=middle;spacingTop=-1;spacingLeft=3;spacingRight=3;rotatable=0;labelPosition=right;points=[];portConstraint=eastwest;strokeColor=inherit;" parent="oRjJ93pPWEKm5RYMZn9i-251" vertex="1">
          <mxGeometry y="26" width="160" height="8" as="geometry" />
        </mxCell>
        <mxCell id="1knqwKVj045Zjyp5p2bE-42" value="+ play(String map, Animal animal)" style="text;strokeColor=none;fillColor=none;align=left;verticalAlign=top;spacingLeft=4;spacingRight=4;overflow=hidden;rotatable=0;points=[[0,0.5],[1,0.5]];portConstraint=eastwest;whiteSpace=wrap;html=1;" vertex="1" parent="oRjJ93pPWEKm5RYMZn9i-251">
          <mxGeometry y="34" width="160" height="34" as="geometry" />
        </mxCell>
        <mxCell id="oRjJ93pPWEKm5RYMZn9i-254" value="- currentState 1" style="text;html=1;align=center;verticalAlign=middle;resizable=0;points=[];autosize=1;strokeColor=none;fillColor=none;" parent="1" vertex="1">
          <mxGeometry x="1517.5" y="1630" width="110" height="30" as="geometry" />
        </mxCell>
        <mxCell id="oRjJ93pPWEKm5RYMZn9i-255" style="edgeStyle=orthogonalEdgeStyle;rounded=0;orthogonalLoop=1;jettySize=auto;html=1;endArrow=block;endFill=0;" parent="1" source="oRjJ93pPWEKm5RYMZn9i-256" target="oRjJ93pPWEKm5RYMZn9i-251" edge="1">
          <mxGeometry relative="1" as="geometry">
            <Array as="points">
              <mxPoint x="1641" y="1520" />
              <mxPoint x="1751" y="1520" />
              <mxPoint x="1751" y="1570" />
            </Array>
          </mxGeometry>
        </mxCell>
        <mxCell id="oRjJ93pPWEKm5RYMZn9i-256" value="HungryState" style="swimlane;fontStyle=1;align=center;verticalAlign=top;childLayout=stackLayout;horizontal=1;startSize=26;horizontalStack=0;resizeParent=1;resizeParentMax=0;resizeLast=0;collapsible=1;marginBottom=0;whiteSpace=wrap;html=1;" parent="1" vertex="1">
          <mxGeometry x="1501" y="1450" width="160" height="34" as="geometry" />
        </mxCell>
        <mxCell id="oRjJ93pPWEKm5RYMZn9i-257" value="" style="line;strokeWidth=1;fillColor=none;align=left;verticalAlign=middle;spacingTop=-1;spacingLeft=3;spacingRight=3;rotatable=0;labelPosition=right;points=[];portConstraint=eastwest;strokeColor=inherit;" parent="oRjJ93pPWEKm5RYMZn9i-256" vertex="1">
          <mxGeometry y="26" width="160" height="8" as="geometry" />
        </mxCell>
        <mxCell id="oRjJ93pPWEKm5RYMZn9i-258" style="edgeStyle=orthogonalEdgeStyle;rounded=0;orthogonalLoop=1;jettySize=auto;html=1;endArrow=block;endFill=0;" parent="1" source="oRjJ93pPWEKm5RYMZn9i-259" target="oRjJ93pPWEKm5RYMZn9i-251" edge="1">
          <mxGeometry relative="1" as="geometry">
            <Array as="points">
              <mxPoint x="1861" y="1520" />
              <mxPoint x="1751" y="1520" />
              <mxPoint x="1751" y="1570" />
            </Array>
          </mxGeometry>
        </mxCell>
        <mxCell id="oRjJ93pPWEKm5RYMZn9i-259" value="FriendlyState" style="swimlane;fontStyle=1;align=center;verticalAlign=top;childLayout=stackLayout;horizontal=1;startSize=26;horizontalStack=0;resizeParent=1;resizeParentMax=0;resizeLast=0;collapsible=1;marginBottom=0;whiteSpace=wrap;html=1;" parent="1" vertex="1">
          <mxGeometry x="1841" y="1450" width="160" height="34" as="geometry" />
        </mxCell>
        <mxCell id="oRjJ93pPWEKm5RYMZn9i-260" value="" style="line;strokeWidth=1;fillColor=none;align=left;verticalAlign=middle;spacingTop=-1;spacingLeft=3;spacingRight=3;rotatable=0;labelPosition=right;points=[];portConstraint=eastwest;strokeColor=inherit;" parent="oRjJ93pPWEKm5RYMZn9i-259" vertex="1">
          <mxGeometry y="26" width="160" height="8" as="geometry" />
        </mxCell>
        <mxCell id="oRjJ93pPWEKm5RYMZn9i-261" style="edgeStyle=orthogonalEdgeStyle;rounded=0;orthogonalLoop=1;jettySize=auto;html=1;endArrow=block;endFill=0;" parent="1" source="oRjJ93pPWEKm5RYMZn9i-262" target="oRjJ93pPWEKm5RYMZn9i-251" edge="1">
          <mxGeometry relative="1" as="geometry">
            <Array as="points">
              <mxPoint x="1751" y="1570" />
            </Array>
          </mxGeometry>
        </mxCell>
        <mxCell id="oRjJ93pPWEKm5RYMZn9i-262" value="NotHungryState" style="swimlane;fontStyle=1;align=center;verticalAlign=top;childLayout=stackLayout;horizontal=1;startSize=26;horizontalStack=0;resizeParent=1;resizeParentMax=0;resizeLast=0;collapsible=1;marginBottom=0;whiteSpace=wrap;html=1;" parent="1" vertex="1">
          <mxGeometry x="1671" y="1450" width="160" height="34" as="geometry" />
        </mxCell>
        <mxCell id="oRjJ93pPWEKm5RYMZn9i-263" value="" style="line;strokeWidth=1;fillColor=none;align=left;verticalAlign=middle;spacingTop=-1;spacingLeft=3;spacingRight=3;rotatable=0;labelPosition=right;points=[];portConstraint=eastwest;strokeColor=inherit;" parent="oRjJ93pPWEKm5RYMZn9i-262" vertex="1">
          <mxGeometry y="26" width="160" height="8" as="geometry" />
        </mxCell>
        <mxCell id="oRjJ93pPWEKm5RYMZn9i-264" value="- mapObjects 1.*" style="text;html=1;align=center;verticalAlign=middle;resizable=0;points=[];autosize=1;strokeColor=none;fillColor=none;" parent="1" vertex="1">
          <mxGeometry x="331" y="1570" width="110" height="30" as="geometry" />
        </mxCell>
        <mxCell id="oRjJ93pPWEKm5RYMZn9i-265" style="edgeStyle=orthogonalEdgeStyle;rounded=0;orthogonalLoop=1;jettySize=auto;html=1;endArrow=block;endFill=0;" parent="1" source="oRjJ93pPWEKm5RYMZn9i-266" target="oRjJ93pPWEKm5RYMZn9i-206" edge="1">
          <mxGeometry relative="1" as="geometry">
            <Array as="points">
              <mxPoint x="1741" y="1773" />
            </Array>
          </mxGeometry>
        </mxCell>
        <mxCell id="oRjJ93pPWEKm5RYMZn9i-266" value="Monkey" style="swimlane;fontStyle=1;align=center;verticalAlign=top;childLayout=stackLayout;horizontal=1;startSize=26;horizontalStack=0;resizeParent=1;resizeParentMax=0;resizeLast=0;collapsible=1;marginBottom=0;whiteSpace=wrap;html=1;" parent="1" vertex="1">
          <mxGeometry x="1661" y="1788" width="160" height="86" as="geometry" />
        </mxCell>
        <mxCell id="1knqwKVj045Zjyp5p2bE-43" value="- MAX_HUNGER = 3: int" style="text;strokeColor=none;fillColor=none;align=left;verticalAlign=top;spacingLeft=4;spacingRight=4;overflow=hidden;rotatable=0;points=[[0,0.5],[1,0.5]];portConstraint=eastwest;whiteSpace=wrap;html=1;" vertex="1" parent="oRjJ93pPWEKm5RYMZn9i-266">
          <mxGeometry y="26" width="160" height="26" as="geometry" />
        </mxCell>
        <mxCell id="1knqwKVj045Zjyp5p2bE-48" value="+ getMaxHunger(): int" style="text;strokeColor=none;fillColor=none;align=left;verticalAlign=top;spacingLeft=4;spacingRight=4;overflow=hidden;rotatable=0;points=[[0,0.5],[1,0.5]];portConstraint=eastwest;whiteSpace=wrap;html=1;" vertex="1" parent="oRjJ93pPWEKm5RYMZn9i-266">
          <mxGeometry y="52" width="160" height="26" as="geometry" />
        </mxCell>
        <mxCell id="oRjJ93pPWEKm5RYMZn9i-267" value="" style="line;strokeWidth=1;fillColor=none;align=left;verticalAlign=middle;spacingTop=-1;spacingLeft=3;spacingRight=3;rotatable=0;labelPosition=right;points=[];portConstraint=eastwest;strokeColor=inherit;" parent="oRjJ93pPWEKm5RYMZn9i-266" vertex="1">
          <mxGeometry y="78" width="160" height="8" as="geometry" />
        </mxCell>
        <mxCell id="oRjJ93pPWEKm5RYMZn9i-268" style="edgeStyle=orthogonalEdgeStyle;rounded=0;orthogonalLoop=1;jettySize=auto;html=1;endArrow=block;endFill=0;" parent="1" source="oRjJ93pPWEKm5RYMZn9i-269" target="oRjJ93pPWEKm5RYMZn9i-206" edge="1">
          <mxGeometry relative="1" as="geometry">
            <Array as="points">
              <mxPoint x="1751" y="1740" />
            </Array>
          </mxGeometry>
        </mxCell>
        <mxCell id="oRjJ93pPWEKm5RYMZn9i-269" value="Squirrel" style="swimlane;fontStyle=1;align=center;verticalAlign=top;childLayout=stackLayout;horizontal=1;startSize=26;horizontalStack=0;resizeParent=1;resizeParentMax=0;resizeLast=0;collapsible=1;marginBottom=0;whiteSpace=wrap;html=1;" parent="1" vertex="1">
          <mxGeometry x="1671" y="1654" width="160" height="86" as="geometry" />
        </mxCell>
        <mxCell id="oRjJ93pPWEKm5RYMZn9i-207" value="- MAX_HUNGER = 5: int" style="text;strokeColor=none;fillColor=none;align=left;verticalAlign=top;spacingLeft=4;spacingRight=4;overflow=hidden;rotatable=0;points=[[0,0.5],[1,0.5]];portConstraint=eastwest;whiteSpace=wrap;html=1;" parent="oRjJ93pPWEKm5RYMZn9i-269" vertex="1">
          <mxGeometry y="26" width="160" height="26" as="geometry" />
        </mxCell>
        <mxCell id="oRjJ93pPWEKm5RYMZn9i-270" value="" style="line;strokeWidth=1;fillColor=none;align=left;verticalAlign=middle;spacingTop=-1;spacingLeft=3;spacingRight=3;rotatable=0;labelPosition=right;points=[];portConstraint=eastwest;strokeColor=inherit;" parent="oRjJ93pPWEKm5RYMZn9i-269" vertex="1">
          <mxGeometry y="52" width="160" height="8" as="geometry" />
        </mxCell>
        <mxCell id="1knqwKVj045Zjyp5p2bE-47" value="+ getMaxHunger(): int" style="text;strokeColor=none;fillColor=none;align=left;verticalAlign=top;spacingLeft=4;spacingRight=4;overflow=hidden;rotatable=0;points=[[0,0.5],[1,0.5]];portConstraint=eastwest;whiteSpace=wrap;html=1;" vertex="1" parent="oRjJ93pPWEKm5RYMZn9i-269">
          <mxGeometry y="60" width="160" height="26" as="geometry" />
        </mxCell>
        <mxCell id="oRjJ93pPWEKm5RYMZn9i-287" style="edgeStyle=orthogonalEdgeStyle;rounded=0;orthogonalLoop=1;jettySize=auto;html=1;endArrow=block;endFill=0;" parent="1" source="oRjJ93pPWEKm5RYMZn9i-271" target="oRjJ93pPWEKm5RYMZn9i-232" edge="1">
          <mxGeometry relative="1" as="geometry" />
        </mxCell>
        <mxCell id="oRjJ93pPWEKm5RYMZn9i-271" value="ForestMushroom" style="swimlane;fontStyle=1;align=center;verticalAlign=top;childLayout=stackLayout;horizontal=1;startSize=26;horizontalStack=0;resizeParent=1;resizeParentMax=0;resizeLast=0;collapsible=1;marginBottom=0;whiteSpace=wrap;html=1;" parent="1" vertex="1">
          <mxGeometry x="741" y="1651" width="160" height="60" as="geometry" />
        </mxCell>
        <mxCell id="oRjJ93pPWEKm5RYMZn9i-285" value="- isVenomous: Bool" style="text;strokeColor=none;fillColor=none;align=left;verticalAlign=top;spacingLeft=4;spacingRight=4;overflow=hidden;rotatable=0;points=[[0,0.5],[1,0.5]];portConstraint=eastwest;whiteSpace=wrap;html=1;" parent="oRjJ93pPWEKm5RYMZn9i-271" vertex="1">
          <mxGeometry y="26" width="160" height="26" as="geometry" />
        </mxCell>
        <mxCell id="oRjJ93pPWEKm5RYMZn9i-272" value="" style="line;strokeWidth=1;fillColor=none;align=left;verticalAlign=middle;spacingTop=-1;spacingLeft=3;spacingRight=3;rotatable=0;labelPosition=right;points=[];portConstraint=eastwest;strokeColor=inherit;" parent="oRjJ93pPWEKm5RYMZn9i-271" vertex="1">
          <mxGeometry y="52" width="160" height="8" as="geometry" />
        </mxCell>
        <mxCell id="oRjJ93pPWEKm5RYMZn9i-280" style="edgeStyle=orthogonalEdgeStyle;rounded=0;orthogonalLoop=1;jettySize=auto;html=1;endArrow=block;endFill=0;" parent="1" source="oRjJ93pPWEKm5RYMZn9i-275" target="oRjJ93pPWEKm5RYMZn9i-232" edge="1">
          <mxGeometry relative="1" as="geometry">
            <Array as="points">
              <mxPoint x="854" y="1820" />
              <mxPoint x="853" y="1820" />
            </Array>
          </mxGeometry>
        </mxCell>
        <mxCell id="oRjJ93pPWEKm5RYMZn9i-275" value="JungleMushroom" style="swimlane;fontStyle=1;align=center;verticalAlign=top;childLayout=stackLayout;horizontal=1;startSize=26;horizontalStack=0;resizeParent=1;resizeParentMax=0;resizeLast=0;collapsible=1;marginBottom=0;whiteSpace=wrap;html=1;" parent="1" vertex="1">
          <mxGeometry x="773.5" y="1850" width="160" height="60" as="geometry" />
        </mxCell>
        <mxCell id="oRjJ93pPWEKm5RYMZn9i-286" value="- isHalucinatif: Bool" style="text;strokeColor=none;fillColor=none;align=left;verticalAlign=top;spacingLeft=4;spacingRight=4;overflow=hidden;rotatable=0;points=[[0,0.5],[1,0.5]];portConstraint=eastwest;whiteSpace=wrap;html=1;" parent="oRjJ93pPWEKm5RYMZn9i-275" vertex="1">
          <mxGeometry y="26" width="160" height="26" as="geometry" />
        </mxCell>
        <mxCell id="oRjJ93pPWEKm5RYMZn9i-276" value="" style="line;strokeWidth=1;fillColor=none;align=left;verticalAlign=middle;spacingTop=-1;spacingLeft=3;spacingRight=3;rotatable=0;labelPosition=right;points=[];portConstraint=eastwest;strokeColor=inherit;" parent="oRjJ93pPWEKm5RYMZn9i-275" vertex="1">
          <mxGeometry y="52" width="160" height="8" as="geometry" />
        </mxCell>
        <mxCell id="oRjJ93pPWEKm5RYMZn9i-290" style="edgeStyle=orthogonalEdgeStyle;rounded=0;orthogonalLoop=1;jettySize=auto;html=1;endArrow=block;endFill=0;" parent="1" source="oRjJ93pPWEKm5RYMZn9i-288" target="oRjJ93pPWEKm5RYMZn9i-251" edge="1">
          <mxGeometry relative="1" as="geometry">
            <Array as="points">
              <mxPoint x="1411" y="1520" />
              <mxPoint x="1756" y="1520" />
              <mxPoint x="1756" y="1570" />
            </Array>
          </mxGeometry>
        </mxCell>
        <mxCell id="oRjJ93pPWEKm5RYMZn9i-288" value="AteWeirdShroomState" style="swimlane;fontStyle=1;align=center;verticalAlign=top;childLayout=stackLayout;horizontal=1;startSize=26;horizontalStack=0;resizeParent=1;resizeParentMax=0;resizeLast=0;collapsible=1;marginBottom=0;whiteSpace=wrap;html=1;" parent="1" vertex="1">
          <mxGeometry x="1331" y="1450" width="160" height="34" as="geometry" />
        </mxCell>
        <mxCell id="oRjJ93pPWEKm5RYMZn9i-289" value="" style="line;strokeWidth=1;fillColor=none;align=left;verticalAlign=middle;spacingTop=-1;spacingLeft=3;spacingRight=3;rotatable=0;labelPosition=right;points=[];portConstraint=eastwest;strokeColor=inherit;" parent="oRjJ93pPWEKm5RYMZn9i-288" vertex="1">
          <mxGeometry y="26" width="160" height="8" as="geometry" />
        </mxCell>
        <mxCell id="oRjJ93pPWEKm5RYMZn9i-291" value="&amp;lt;&amp;lt;Abstract&amp;gt;&amp;gt; BiomePredator" style="swimlane;fontStyle=1;align=center;verticalAlign=top;childLayout=stackLayout;horizontal=1;startSize=26;horizontalStack=0;resizeParent=1;resizeParentMax=0;resizeLast=0;collapsible=1;marginBottom=0;whiteSpace=wrap;html=1;" parent="1" vertex="1">
          <mxGeometry x="1786" y="1740" width="190" height="34" as="geometry" />
        </mxCell>
        <mxCell id="oRjJ93pPWEKm5RYMZn9i-294" value="" style="line;strokeWidth=1;fillColor=none;align=left;verticalAlign=middle;spacingTop=-1;spacingLeft=3;spacingRight=3;rotatable=0;labelPosition=right;points=[];portConstraint=eastwest;strokeColor=inherit;" parent="oRjJ93pPWEKm5RYMZn9i-291" vertex="1">
          <mxGeometry y="26" width="190" height="8" as="geometry" />
        </mxCell>
        <mxCell id="oRjJ93pPWEKm5RYMZn9i-316" style="edgeStyle=orthogonalEdgeStyle;rounded=0;orthogonalLoop=1;jettySize=auto;html=1;endArrow=block;endFill=0;" parent="1" source="oRjJ93pPWEKm5RYMZn9i-295" target="oRjJ93pPWEKm5RYMZn9i-291" edge="1">
          <mxGeometry relative="1" as="geometry" />
        </mxCell>
        <mxCell id="oRjJ93pPWEKm5RYMZn9i-295" value="&amp;lt;&amp;lt;Abstract &amp;gt;&amp;gt; JunglePredators" style="swimlane;fontStyle=1;align=center;verticalAlign=top;childLayout=stackLayout;horizontal=1;startSize=26;horizontalStack=0;resizeParent=1;resizeParentMax=0;resizeLast=0;collapsible=1;marginBottom=0;whiteSpace=wrap;html=1;" parent="1" vertex="1">
          <mxGeometry x="1886" y="1810" width="190" height="34" as="geometry" />
        </mxCell>
        <mxCell id="oRjJ93pPWEKm5RYMZn9i-296" value="" style="line;strokeWidth=1;fillColor=none;align=left;verticalAlign=middle;spacingTop=-1;spacingLeft=3;spacingRight=3;rotatable=0;labelPosition=right;points=[];portConstraint=eastwest;strokeColor=inherit;" parent="oRjJ93pPWEKm5RYMZn9i-295" vertex="1">
          <mxGeometry y="26" width="190" height="8" as="geometry" />
        </mxCell>
        <mxCell id="oRjJ93pPWEKm5RYMZn9i-297" value="&amp;lt;&amp;lt;Abstract &amp;gt;&amp;gt; ForestPredators" style="swimlane;fontStyle=1;align=center;verticalAlign=top;childLayout=stackLayout;horizontal=1;startSize=26;horizontalStack=0;resizeParent=1;resizeParentMax=0;resizeLast=0;collapsible=1;marginBottom=0;whiteSpace=wrap;html=1;" parent="1" vertex="1">
          <mxGeometry x="1886" y="1670" width="190" height="34" as="geometry" />
        </mxCell>
        <mxCell id="oRjJ93pPWEKm5RYMZn9i-298" value="" style="line;strokeWidth=1;fillColor=none;align=left;verticalAlign=middle;spacingTop=-1;spacingLeft=3;spacingRight=3;rotatable=0;labelPosition=right;points=[];portConstraint=eastwest;strokeColor=inherit;" parent="oRjJ93pPWEKm5RYMZn9i-297" vertex="1">
          <mxGeometry y="26" width="190" height="8" as="geometry" />
        </mxCell>
        <mxCell id="oRjJ93pPWEKm5RYMZn9i-313" style="edgeStyle=orthogonalEdgeStyle;rounded=0;orthogonalLoop=1;jettySize=auto;html=1;endArrow=block;endFill=0;" parent="1" source="oRjJ93pPWEKm5RYMZn9i-299" target="oRjJ93pPWEKm5RYMZn9i-295" edge="1">
          <mxGeometry relative="1" as="geometry" />
        </mxCell>
        <mxCell id="oRjJ93pPWEKm5RYMZn9i-299" value="Serpent" style="swimlane;fontStyle=1;align=center;verticalAlign=top;childLayout=stackLayout;horizontal=1;startSize=26;horizontalStack=0;resizeParent=1;resizeParentMax=0;resizeLast=0;collapsible=1;marginBottom=0;whiteSpace=wrap;html=1;" parent="1" vertex="1">
          <mxGeometry x="1930" y="1914" width="100" height="34" as="geometry" />
        </mxCell>
        <mxCell id="oRjJ93pPWEKm5RYMZn9i-300" value="" style="line;strokeWidth=1;fillColor=none;align=left;verticalAlign=middle;spacingTop=-1;spacingLeft=3;spacingRight=3;rotatable=0;labelPosition=right;points=[];portConstraint=eastwest;strokeColor=inherit;" parent="oRjJ93pPWEKm5RYMZn9i-299" vertex="1">
          <mxGeometry y="26" width="100" height="8" as="geometry" />
        </mxCell>
        <mxCell id="oRjJ93pPWEKm5RYMZn9i-314" style="edgeStyle=orthogonalEdgeStyle;rounded=0;orthogonalLoop=1;jettySize=auto;html=1;endArrow=block;endFill=0;" parent="1" source="oRjJ93pPWEKm5RYMZn9i-301" target="oRjJ93pPWEKm5RYMZn9i-295" edge="1">
          <mxGeometry relative="1" as="geometry">
            <Array as="points">
              <mxPoint x="1980" y="1880" />
              <mxPoint x="1980" y="1864" />
              <mxPoint x="1981" y="1864" />
            </Array>
          </mxGeometry>
        </mxCell>
        <mxCell id="oRjJ93pPWEKm5RYMZn9i-301" value="Scorpion" style="swimlane;fontStyle=1;align=center;verticalAlign=top;childLayout=stackLayout;horizontal=1;startSize=26;horizontalStack=0;resizeParent=1;resizeParentMax=0;resizeLast=0;collapsible=1;marginBottom=0;whiteSpace=wrap;html=1;" parent="1" vertex="1">
          <mxGeometry x="1860" y="1863" width="90" height="34" as="geometry" />
        </mxCell>
        <mxCell id="oRjJ93pPWEKm5RYMZn9i-302" value="" style="line;strokeWidth=1;fillColor=none;align=left;verticalAlign=middle;spacingTop=-1;spacingLeft=3;spacingRight=3;rotatable=0;labelPosition=right;points=[];portConstraint=eastwest;strokeColor=inherit;" parent="oRjJ93pPWEKm5RYMZn9i-301" vertex="1">
          <mxGeometry y="26" width="90" height="8" as="geometry" />
        </mxCell>
        <mxCell id="oRjJ93pPWEKm5RYMZn9i-320" style="edgeStyle=orthogonalEdgeStyle;rounded=0;orthogonalLoop=1;jettySize=auto;html=1;endArrow=open;endFill=0;dashed=1;" parent="1" source="oRjJ93pPWEKm5RYMZn9i-303" target="oRjJ93pPWEKm5RYMZn9i-297" edge="1">
          <mxGeometry relative="1" as="geometry">
            <Array as="points">
              <mxPoint x="1946" y="1593" />
            </Array>
          </mxGeometry>
        </mxCell>
        <mxCell id="oRjJ93pPWEKm5RYMZn9i-303" value="Fox" style="swimlane;fontStyle=1;align=center;verticalAlign=top;childLayout=stackLayout;horizontal=1;startSize=26;horizontalStack=0;resizeParent=1;resizeParentMax=0;resizeLast=0;collapsible=1;marginBottom=0;whiteSpace=wrap;html=1;" parent="1" vertex="1">
          <mxGeometry x="1871" y="1576" width="50" height="34" as="geometry" />
        </mxCell>
        <mxCell id="oRjJ93pPWEKm5RYMZn9i-304" value="" style="line;strokeWidth=1;fillColor=none;align=left;verticalAlign=middle;spacingTop=-1;spacingLeft=3;spacingRight=3;rotatable=0;labelPosition=right;points=[];portConstraint=eastwest;strokeColor=inherit;" parent="oRjJ93pPWEKm5RYMZn9i-303" vertex="1">
          <mxGeometry y="26" width="50" height="8" as="geometry" />
        </mxCell>
        <mxCell id="oRjJ93pPWEKm5RYMZn9i-319" style="edgeStyle=orthogonalEdgeStyle;rounded=0;orthogonalLoop=1;jettySize=auto;html=1;endArrow=open;endFill=0;dashed=1;" parent="1" source="oRjJ93pPWEKm5RYMZn9i-305" target="oRjJ93pPWEKm5RYMZn9i-297" edge="1">
          <mxGeometry relative="1" as="geometry">
            <Array as="points">
              <mxPoint x="1946" y="1549" />
            </Array>
          </mxGeometry>
        </mxCell>
        <mxCell id="oRjJ93pPWEKm5RYMZn9i-305" value="Owl" style="swimlane;fontStyle=1;align=center;verticalAlign=top;childLayout=stackLayout;horizontal=1;startSize=26;horizontalStack=0;resizeParent=1;resizeParentMax=0;resizeLast=0;collapsible=1;marginBottom=0;whiteSpace=wrap;html=1;" parent="1" vertex="1">
          <mxGeometry x="1871" y="1532" width="50" height="34" as="geometry" />
        </mxCell>
        <mxCell id="oRjJ93pPWEKm5RYMZn9i-306" value="" style="line;strokeWidth=1;fillColor=none;align=left;verticalAlign=middle;spacingTop=-1;spacingLeft=3;spacingRight=3;rotatable=0;labelPosition=right;points=[];portConstraint=eastwest;strokeColor=inherit;" parent="oRjJ93pPWEKm5RYMZn9i-305" vertex="1">
          <mxGeometry y="26" width="50" height="8" as="geometry" />
        </mxCell>
        <mxCell id="oRjJ93pPWEKm5RYMZn9i-312" style="edgeStyle=orthogonalEdgeStyle;rounded=0;orthogonalLoop=1;jettySize=auto;html=1;endArrow=block;endFill=0;" parent="1" source="oRjJ93pPWEKm5RYMZn9i-291" target="oRjJ93pPWEKm5RYMZn9i-222" edge="1">
          <mxGeometry relative="1" as="geometry">
            <mxPoint x="501" y="1810" as="targetPoint" />
            <mxPoint x="1876" y="1770" as="sourcePoint" />
            <Array as="points">
              <mxPoint x="1846" y="1890" />
              <mxPoint x="1456" y="1890" />
              <mxPoint x="1456" y="1810" />
            </Array>
          </mxGeometry>
        </mxCell>
        <mxCell id="oRjJ93pPWEKm5RYMZn9i-321" value="&lt;font style=&quot;font-size: 38px;&quot;&gt;ModÃ¨le ItÃ©ration 2&lt;/font&gt;" style="text;html=1;align=center;verticalAlign=middle;resizable=0;points=[];autosize=1;strokeColor=none;fillColor=none;" parent="1" vertex="1">
          <mxGeometry x="955" y="1333" width="330" height="60" as="geometry" />
        </mxCell>
        <mxCell id="1knqwKVj045Zjyp5p2bE-3" style="edgeStyle=orthogonalEdgeStyle;rounded=0;orthogonalLoop=1;jettySize=auto;html=1;entryX=0.5;entryY=0;entryDx=0;entryDy=0;endArrow=block;endFill=0;" edge="1" parent="1" source="1knqwKVj045Zjyp5p2bE-1" target="1pIJbLg3n0uSN6tYHmuE-51">
          <mxGeometry relative="1" as="geometry" />
        </mxCell>
        <mxCell id="1knqwKVj045Zjyp5p2bE-1" value="Acorn" style="swimlane;fontStyle=1;align=center;verticalAlign=top;childLayout=stackLayout;horizontal=1;startSize=26;horizontalStack=0;resizeParent=1;resizeParentMax=0;resizeLast=0;collapsible=1;marginBottom=0;whiteSpace=wrap;html=1;" vertex="1" parent="1">
          <mxGeometry x="1330" y="820" width="160" height="34" as="geometry" />
        </mxCell>
        <mxCell id="1knqwKVj045Zjyp5p2bE-2" value="" style="line;strokeWidth=1;fillColor=none;align=left;verticalAlign=middle;spacingTop=-1;spacingLeft=3;spacingRight=3;rotatable=0;labelPosition=right;points=[];portConstraint=eastwest;strokeColor=inherit;" vertex="1" parent="1knqwKVj045Zjyp5p2bE-1">
          <mxGeometry y="26" width="160" height="8" as="geometry" />
        </mxCell>
        <mxCell id="1knqwKVj045Zjyp5p2bE-6" style="edgeStyle=orthogonalEdgeStyle;rounded=0;orthogonalLoop=1;jettySize=auto;html=1;endArrow=block;endFill=0;" edge="1" parent="1" source="1knqwKVj045Zjyp5p2bE-4" target="1pIJbLg3n0uSN6tYHmuE-51">
          <mxGeometry relative="1" as="geometry">
            <Array as="points">
              <mxPoint x="1370" y="960" />
              <mxPoint x="1370" y="960" />
            </Array>
          </mxGeometry>
        </mxCell>
        <mxCell id="1knqwKVj045Zjyp5p2bE-4" value="Banana" style="swimlane;fontStyle=1;align=center;verticalAlign=top;childLayout=stackLayout;horizontal=1;startSize=26;horizontalStack=0;resizeParent=1;resizeParentMax=0;resizeLast=0;collapsible=1;marginBottom=0;whiteSpace=wrap;html=1;" vertex="1" parent="1">
          <mxGeometry x="1341" y="990" width="160" height="34" as="geometry" />
        </mxCell>
        <mxCell id="1knqwKVj045Zjyp5p2bE-5" value="" style="line;strokeWidth=1;fillColor=none;align=left;verticalAlign=middle;spacingTop=-1;spacingLeft=3;spacingRight=3;rotatable=0;labelPosition=right;points=[];portConstraint=eastwest;strokeColor=inherit;" vertex="1" parent="1knqwKVj045Zjyp5p2bE-4">
          <mxGeometry y="26" width="160" height="8" as="geometry" />
        </mxCell>
        <mxCell id="1knqwKVj045Zjyp5p2bE-13" style="edgeStyle=orthogonalEdgeStyle;rounded=0;orthogonalLoop=1;jettySize=auto;html=1;endArrow=block;endFill=0;" edge="1" parent="1" source="1knqwKVj045Zjyp5p2bE-7" target="1pIJbLg3n0uSN6tYHmuE-75">
          <mxGeometry relative="1" as="geometry" />
        </mxCell>
        <mxCell id="1knqwKVj045Zjyp5p2bE-7" value="ForestMushroom" style="swimlane;fontStyle=1;align=center;verticalAlign=top;childLayout=stackLayout;horizontal=1;startSize=26;horizontalStack=0;resizeParent=1;resizeParentMax=0;resizeLast=0;collapsible=1;marginBottom=0;whiteSpace=wrap;html=1;" vertex="1" parent="1">
          <mxGeometry x="1140" y="817" width="160" height="34" as="geometry" />
        </mxCell>
        <mxCell id="1knqwKVj045Zjyp5p2bE-9" value="" style="line;strokeWidth=1;fillColor=none;align=left;verticalAlign=middle;spacingTop=-1;spacingLeft=3;spacingRight=3;rotatable=0;labelPosition=right;points=[];portConstraint=eastwest;strokeColor=inherit;" vertex="1" parent="1knqwKVj045Zjyp5p2bE-7">
          <mxGeometry y="26" width="160" height="8" as="geometry" />
        </mxCell>
        <mxCell id="1knqwKVj045Zjyp5p2bE-14" style="edgeStyle=orthogonalEdgeStyle;rounded=0;orthogonalLoop=1;jettySize=auto;html=1;endArrow=block;endFill=0;" edge="1" parent="1" source="1knqwKVj045Zjyp5p2bE-10" target="1pIJbLg3n0uSN6tYHmuE-75">
          <mxGeometry relative="1" as="geometry">
            <Array as="points">
              <mxPoint x="1250" y="980" />
              <mxPoint x="1250" y="980" />
            </Array>
          </mxGeometry>
        </mxCell>
        <mxCell id="1knqwKVj045Zjyp5p2bE-10" value="JungleMushroom" style="swimlane;fontStyle=1;align=center;verticalAlign=top;childLayout=stackLayout;horizontal=1;startSize=26;horizontalStack=0;resizeParent=1;resizeParentMax=0;resizeLast=0;collapsible=1;marginBottom=0;whiteSpace=wrap;html=1;" vertex="1" parent="1">
          <mxGeometry x="1150" y="990" width="160" height="34" as="geometry" />
        </mxCell>
        <mxCell id="1knqwKVj045Zjyp5p2bE-12" value="" style="line;strokeWidth=1;fillColor=none;align=left;verticalAlign=middle;spacingTop=-1;spacingLeft=3;spacingRight=3;rotatable=0;labelPosition=right;points=[];portConstraint=eastwest;strokeColor=inherit;" vertex="1" parent="1knqwKVj045Zjyp5p2bE-10">
          <mxGeometry y="26" width="160" height="8" as="geometry" />
        </mxCell>
        <mxCell id="1knqwKVj045Zjyp5p2bE-17" value="" style="edgeStyle=orthogonalEdgeStyle;rounded=0;orthogonalLoop=1;jettySize=auto;html=1;endArrow=open;endFill=0;dashed=1;" edge="1" parent="1" source="1pIJbLg3n0uSN6tYHmuE-78" target="1knqwKVj045Zjyp5p2bE-15">
          <mxGeometry relative="1" as="geometry">
            <mxPoint x="2250" y="767" as="sourcePoint" />
            <mxPoint x="1030" y="904" as="targetPoint" />
          </mxGeometry>
        </mxCell>
        <mxCell id="1knqwKVj045Zjyp5p2bE-18" style="edgeStyle=orthogonalEdgeStyle;rounded=0;orthogonalLoop=1;jettySize=auto;html=1;endArrow=block;endFill=0;" edge="1" parent="1" source="1knqwKVj045Zjyp5p2bE-15" target="1pIJbLg3n0uSN6tYHmuE-55">
          <mxGeometry relative="1" as="geometry">
            <Array as="points">
              <mxPoint x="1040" y="890" />
              <mxPoint x="1040" y="890" />
            </Array>
          </mxGeometry>
        </mxCell>
        <mxCell id="1knqwKVj045Zjyp5p2bE-15" value="ForestEmptySpace" style="swimlane;fontStyle=1;align=center;verticalAlign=top;childLayout=stackLayout;horizontal=1;startSize=26;horizontalStack=0;resizeParent=1;resizeParentMax=0;resizeLast=0;collapsible=1;marginBottom=0;whiteSpace=wrap;html=1;" vertex="1" parent="1">
          <mxGeometry x="955" y="817" width="160" height="34" as="geometry" />
        </mxCell>
        <mxCell id="1knqwKVj045Zjyp5p2bE-16" value="" style="line;strokeWidth=1;fillColor=none;align=left;verticalAlign=middle;spacingTop=-1;spacingLeft=3;spacingRight=3;rotatable=0;labelPosition=right;points=[];portConstraint=eastwest;strokeColor=inherit;" vertex="1" parent="1knqwKVj045Zjyp5p2bE-15">
          <mxGeometry y="26" width="160" height="8" as="geometry" />
        </mxCell>
        <mxCell id="1knqwKVj045Zjyp5p2bE-21" style="edgeStyle=orthogonalEdgeStyle;rounded=0;orthogonalLoop=1;jettySize=auto;html=1;endArrow=block;endFill=0;" edge="1" parent="1" source="1knqwKVj045Zjyp5p2bE-19" target="1pIJbLg3n0uSN6tYHmuE-55">
          <mxGeometry relative="1" as="geometry">
            <Array as="points">
              <mxPoint x="1040" y="980" />
              <mxPoint x="1040" y="980" />
            </Array>
          </mxGeometry>
        </mxCell>
        <mxCell id="1knqwKVj045Zjyp5p2bE-19" value="JungleEmptySpace" style="swimlane;fontStyle=1;align=center;verticalAlign=top;childLayout=stackLayout;horizontal=1;startSize=26;horizontalStack=0;resizeParent=1;resizeParentMax=0;resizeLast=0;collapsible=1;marginBottom=0;whiteSpace=wrap;html=1;" vertex="1" parent="1">
          <mxGeometry x="955" y="990" width="160" height="34" as="geometry" />
        </mxCell>
        <mxCell id="1knqwKVj045Zjyp5p2bE-20" value="" style="line;strokeWidth=1;fillColor=none;align=left;verticalAlign=middle;spacingTop=-1;spacingLeft=3;spacingRight=3;rotatable=0;labelPosition=right;points=[];portConstraint=eastwest;strokeColor=inherit;" vertex="1" parent="1knqwKVj045Zjyp5p2bE-19">
          <mxGeometry y="26" width="160" height="8" as="geometry" />
        </mxCell>
        <mxCell id="1knqwKVj045Zjyp5p2bE-26" style="edgeStyle=orthogonalEdgeStyle;rounded=0;orthogonalLoop=1;jettySize=auto;html=1;endArrow=block;endFill=0;" edge="1" parent="1" source="1knqwKVj045Zjyp5p2bE-22" target="1pIJbLg3n0uSN6tYHmuE-47">
          <mxGeometry relative="1" as="geometry" />
        </mxCell>
        <mxCell id="1knqwKVj045Zjyp5p2bE-22" value="Bush" style="swimlane;fontStyle=1;align=center;verticalAlign=top;childLayout=stackLayout;horizontal=1;startSize=26;horizontalStack=0;resizeParent=1;resizeParentMax=0;resizeLast=0;collapsible=1;marginBottom=0;whiteSpace=wrap;html=1;" vertex="1" parent="1">
          <mxGeometry x="1517.5" y="820" width="160" height="34" as="geometry">
            <mxRectangle x="1900" y="751" width="100" height="30" as="alternateBounds" />
          </mxGeometry>
        </mxCell>
        <mxCell id="1knqwKVj045Zjyp5p2bE-23" value="" style="line;strokeWidth=1;fillColor=none;align=left;verticalAlign=middle;spacingTop=-1;spacingLeft=3;spacingRight=3;rotatable=0;labelPosition=right;points=[];portConstraint=eastwest;strokeColor=inherit;" vertex="1" parent="1knqwKVj045Zjyp5p2bE-22">
          <mxGeometry y="26" width="160" height="8" as="geometry" />
        </mxCell>
        <mxCell id="1knqwKVj045Zjyp5p2bE-27" style="edgeStyle=orthogonalEdgeStyle;rounded=0;orthogonalLoop=1;jettySize=auto;html=1;endArrow=block;endFill=0;" edge="1" parent="1" source="1knqwKVj045Zjyp5p2bE-24" target="1pIJbLg3n0uSN6tYHmuE-47">
          <mxGeometry relative="1" as="geometry">
            <Array as="points">
              <mxPoint x="1620" y="950" />
              <mxPoint x="1620" y="950" />
            </Array>
          </mxGeometry>
        </mxCell>
        <mxCell id="1knqwKVj045Zjyp5p2bE-24" value="SmallRock" style="swimlane;fontStyle=1;align=center;verticalAlign=top;childLayout=stackLayout;horizontal=1;startSize=26;horizontalStack=0;resizeParent=1;resizeParentMax=0;resizeLast=0;collapsible=1;marginBottom=0;whiteSpace=wrap;html=1;" vertex="1" parent="1">
          <mxGeometry x="1540" y="990" width="160" height="34" as="geometry">
            <mxRectangle x="1900" y="751" width="100" height="30" as="alternateBounds" />
          </mxGeometry>
        </mxCell>
        <mxCell id="1knqwKVj045Zjyp5p2bE-25" value="" style="line;strokeWidth=1;fillColor=none;align=left;verticalAlign=middle;spacingTop=-1;spacingLeft=3;spacingRight=3;rotatable=0;labelPosition=right;points=[];portConstraint=eastwest;strokeColor=inherit;" vertex="1" parent="1knqwKVj045Zjyp5p2bE-24">
          <mxGeometry y="26" width="160" height="8" as="geometry" />
        </mxCell>
        <mxCell id="1knqwKVj045Zjyp5p2bE-35" style="edgeStyle=orthogonalEdgeStyle;rounded=0;orthogonalLoop=1;jettySize=auto;html=1;endArrow=block;endFill=0;" edge="1" parent="1" source="1knqwKVj045Zjyp5p2bE-28" target="1pIJbLg3n0uSN6tYHmuE-43">
          <mxGeometry relative="1" as="geometry">
            <Array as="points">
              <mxPoint x="1810" y="950" />
              <mxPoint x="1810" y="950" />
            </Array>
          </mxGeometry>
        </mxCell>
        <mxCell id="1knqwKVj045Zjyp5p2bE-28" value="CoconutTree" style="swimlane;fontStyle=1;align=center;verticalAlign=top;childLayout=stackLayout;horizontal=1;startSize=26;horizontalStack=0;resizeParent=1;resizeParentMax=0;resizeLast=0;collapsible=1;marginBottom=0;whiteSpace=wrap;html=1;" vertex="1" parent="1">
          <mxGeometry x="1730" y="990" width="160" height="34" as="geometry">
            <mxRectangle x="1900" y="751" width="100" height="30" as="alternateBounds" />
          </mxGeometry>
        </mxCell>
        <mxCell id="1knqwKVj045Zjyp5p2bE-29" value="" style="line;strokeWidth=1;fillColor=none;align=left;verticalAlign=middle;spacingTop=-1;spacingLeft=3;spacingRight=3;rotatable=0;labelPosition=right;points=[];portConstraint=eastwest;strokeColor=inherit;" vertex="1" parent="1knqwKVj045Zjyp5p2bE-28">
          <mxGeometry y="26" width="160" height="8" as="geometry" />
        </mxCell>
        <mxCell id="1knqwKVj045Zjyp5p2bE-34" style="edgeStyle=orthogonalEdgeStyle;rounded=0;orthogonalLoop=1;jettySize=auto;html=1;endArrow=block;endFill=0;" edge="1" parent="1" source="1knqwKVj045Zjyp5p2bE-30" target="1pIJbLg3n0uSN6tYHmuE-43">
          <mxGeometry relative="1" as="geometry" />
        </mxCell>
        <mxCell id="1knqwKVj045Zjyp5p2bE-30" value="ForestTree" style="swimlane;fontStyle=1;align=center;verticalAlign=top;childLayout=stackLayout;horizontal=1;startSize=26;horizontalStack=0;resizeParent=1;resizeParentMax=0;resizeLast=0;collapsible=1;marginBottom=0;whiteSpace=wrap;html=1;" vertex="1" parent="1">
          <mxGeometry x="1700" y="820" width="160" height="34" as="geometry">
            <mxRectangle x="1900" y="751" width="100" height="30" as="alternateBounds" />
          </mxGeometry>
        </mxCell>
        <mxCell id="1knqwKVj045Zjyp5p2bE-31" value="" style="line;strokeWidth=1;fillColor=none;align=left;verticalAlign=middle;spacingTop=-1;spacingLeft=3;spacingRight=3;rotatable=0;labelPosition=right;points=[];portConstraint=eastwest;strokeColor=inherit;" vertex="1" parent="1knqwKVj045Zjyp5p2bE-30">
          <mxGeometry y="26" width="160" height="8" as="geometry" />
        </mxCell>
      </root>
    </mxGraphModel>
  </diagram>
</mxfile>
